<svg width="18" height="11" viewBox="0 0 18 11" fill="none" xmlns="http://www.w3.org/2000/svg">
<path d="M5.7168 0C7.19834 0 8.54881 0.542274 9.56445 1.43164C8.36802 2.51863 8.40679 2.58274 7.93652 3.03516C7.34904 2.56778 6.70847 2.23242 5.7168 2.23242C3.84121 2.23252 2.37695 3.69557 2.37695 5.5C2.37712 7.30429 3.84131 8.76651 5.7168 8.7666C7.57022 8.7666 8.32332 7.99801 8.80762 6.58594C7.91318 6.58594 5.7168 6.58887 5.7168 6.58887V4.41016H11.208C11.5904 7.0458 10.4362 11 5.7168 11C2.55957 10.9999 0.000171427 8.53733 0 5.5C0 2.46248 2.55947 9.56992e-05 5.7168 0ZM16.0186 2.61328V4.51953H18V5.88086H16.0186V7.84082H14.6035V5.88086H12.5664V4.51953H14.6035V2.61328H16.0186Z" fill="white"/>
</svg>
