<svg width="18" height="13" viewBox="0 0 18 13" fill="none" xmlns="http://www.w3.org/2000/svg">
<path d="M9.00391 0C9.00391 0 12.7819 0.000383195 15.3008 0.1875C15.6523 0.230238 16.42 0.233488 17.1045 0.969727C17.6439 1.53057 17.8203 2.80469 17.8203 2.80469C17.8226 2.8234 18 4.30995 18 5.7959V7.19824C18 8.68212 17.8232 10.1656 17.8203 10.1895C17.8203 10.1895 17.6439 11.4636 17.1045 12.0244C16.42 12.7607 15.6523 12.7643 15.3008 12.8076C12.7824 12.9947 9.00154 13 9 13C8.99578 13 4.31923 12.9565 2.87988 12.8145C2.47934 12.7377 1.57961 12.7608 0.894531 12.0244C0.355149 11.4635 0.179688 10.1895 0.179688 10.1895C0.176823 10.1656 0 8.68212 0 7.19824V5.7959C2.05321e-06 4.30994 0.177444 2.82339 0.179688 2.80469C0.179688 2.80469 0.355104 1.53058 0.894531 0.969727C1.57966 0.233289 2.34709 0.230242 2.69922 0.1875C5.21809 0.00038323 8.99609 0 8.99609 0H9.00391ZM7.1416 8.89746L12.0039 6.30957L7.14062 3.7041L7.1416 8.89746Z" fill="white"/>
</svg>
