<svg width="18" height="16" viewBox="0 0 18 16" fill="none" xmlns="http://www.w3.org/2000/svg">
<path d="M13.5479 5.02637C16.0412 5.02646 18 6.59055 18 9.95703V16.001H14.0215V10.376C14.0215 8.90381 13.3995 7.89854 12.0312 7.89844C10.9846 7.89844 10.4028 8.57686 10.1318 9.23047C10.0302 9.46509 10.0459 9.79232 10.0459 10.1191V16.001H6.10449C6.10449 16.001 6.15529 6.03654 6.10449 5.13086H10.0459V6.83691C10.279 6.09107 11.5383 5.02637 13.5479 5.02637ZM3.96191 16H0.454102V5.13086H3.96191V16ZM2.14355 0C3.43762 0.000186185 4.23339 0.812211 4.25879 1.88477C4.2587 2.93779 3.43752 3.77133 2.11914 3.77148H2.09375C0.823773 3.77148 1.70235e-05 2.94089 0 1.8877C0 0.813993 0.848164 0 2.14355 0Z" fill="white"/>
</svg>
