<svg width="27" height="27" viewBox="0 0 27 27" fill="none" xmlns="http://www.w3.org/2000/svg">
<path d="M26.928 12.0705C26.8038 11.5348 26.5643 11.0327 26.226 10.5991C25.8828 10.1688 25.4497 9.81871 24.9571 9.57321C24.5686 9.3821 24.1469 9.26753 23.7151 9.23575C23.4951 6.87363 22.4481 4.66505 20.7588 2.99937C18.8352 1.07875 16.2279 0 13.5096 0C10.7912 0 8.18399 1.07875 6.2604 2.99937C4.57106 4.66505 3.52408 6.87363 3.30402 9.23575C2.87223 9.26753 2.45058 9.3821 2.06208 9.57321C1.56699 9.81489 1.13314 10.1656 0.793132 10.5991C0.452364 11.0317 0.212503 11.535 0.0910574 12.0721C-0.0303878 12.6092 -0.0303521 13.1667 0.0911624 13.7038L2.21057 22.3834C2.57536 23.7133 3.36799 24.8861 4.46598 25.7205C5.56397 26.555 6.90621 27.0046 8.28531 27H18.6934C20.0772 27.0014 21.423 26.5475 22.5233 25.7084C23.6235 24.8692 24.4171 23.6913 24.7816 22.3564L26.8875 13.7038C27.0225 13.1693 27.036 12.6104 26.928 12.0705ZM9.24377 20.7366C9.24377 21.0051 9.1371 21.2626 8.94723 21.4525C8.75735 21.6423 8.49983 21.749 8.23131 21.749C7.96279 21.749 7.70527 21.6423 7.5154 21.4525C7.32552 21.2626 7.21885 21.0051 7.21885 20.7366V15.4181C7.21885 15.1496 7.32552 14.8921 7.5154 14.7023C7.70527 14.5124 7.96279 14.4057 8.23131 14.4057C8.49983 14.4057 8.75735 14.5124 8.94723 14.7023C9.1371 14.8921 9.24377 15.1496 9.24377 15.4181V20.7366ZM14.522 20.7366C14.522 20.8695 14.4959 21.0012 14.445 21.124C14.3941 21.2469 14.3195 21.3585 14.2255 21.4525C14.1315 21.5465 14.0199 21.621 13.897 21.6719C13.7742 21.7228 13.6425 21.749 13.5096 21.749C13.3766 21.749 13.245 21.7228 13.1221 21.6719C12.9993 21.621 12.8877 21.5465 12.7937 21.4525C12.6997 21.3585 12.6251 21.2469 12.5742 21.124C12.5233 21.0012 12.4971 20.8695 12.4971 20.7366V15.4181C12.4971 15.1496 12.6038 14.8921 12.7937 14.7023C12.9835 14.5124 13.2411 14.4057 13.5096 14.4057C13.7781 14.4057 14.0356 14.5124 14.2255 14.7023C14.4154 14.8921 14.522 15.1496 14.522 15.4181V20.7366ZM19.8003 20.7366C19.8003 21.0051 19.6936 21.2626 19.5038 21.4525C19.3139 21.6423 19.0564 21.749 18.7879 21.749C18.5193 21.749 18.2618 21.6423 18.0719 21.4525C17.8821 21.2626 17.7754 21.0051 17.7754 20.7366V15.4181C17.7754 15.1496 17.8821 14.8921 18.0719 14.7023C18.2618 14.5124 18.5193 14.4057 18.7879 14.4057C19.0564 14.4057 19.3139 14.5124 19.5038 14.7023C19.6936 14.8921 19.8003 15.1496 19.8003 15.4181V20.7366ZM5.34244 9.20875C5.56445 7.39672 6.39217 5.71284 7.69133 4.43023C9.237 2.89208 11.3289 2.02858 13.5096 2.02858C15.6902 2.02858 17.7822 2.89208 19.3278 4.43023C20.627 5.71284 21.4547 7.39672 21.6767 9.20875H5.34244Z" fill="white"/>
</svg>
