<svg width="22" height="20" viewBox="0 0 22 20" fill="none" xmlns="http://www.w3.org/2000/svg">
<path d="M2.15578 20V5.66667L0 0.944444L1.98995 0L4.58794 5.61111H17.4121L20.01 0L22 0.944444L19.8442 5.66667V20H2.15578ZM8.78894 12.2222H13.2111C13.5243 12.2222 13.787 12.1156 13.9993 11.9022C14.2116 11.6889 14.3173 11.4252 14.3166 11.1111C14.3158 10.797 14.2097 10.5333 13.9982 10.32C13.7867 10.1067 13.5243 10 13.2111 10H8.78894C8.47571 10 8.21333 10.1067 8.00181 10.32C7.79028 10.5333 7.68415 10.797 7.68342 11.1111C7.68268 11.4252 7.78881 11.6893 8.00181 11.9033C8.21481 12.1174 8.47719 12.2237 8.78894 12.2222Z" fill="#727272"/>
</svg>
