<svg width="82" height="82" viewBox="0 0 82 82" fill="none" xmlns="http://www.w3.org/2000/svg">
<path d="M41 0L76.507 20.5V61.5L41 82L5.49296 61.5V20.5L41 0Z" fill="#192954"/>
<path d="M60.3924 59.1338C60.3696 58.7133 60.5997 58.1458 60.3297 57.9042C60.0931 57.6969 59.5376 57.8349 59.1265 57.8462C58.7032 57.8577 58.1363 57.6594 57.8982 57.9303C57.6909 58.163 57.8255 58.7133 57.8378 59.1314C57.8517 59.5542 57.6534 60.1192 57.921 60.3585C58.1543 60.5683 58.7089 60.427 59.1232 60.4155C59.5466 60.4017 60.1103 60.6025 60.3467 60.3347C60.5565 60.1021 60.3924 59.5485 60.3924 59.1338ZM24.1534 59.1574C24.1534 58.7998 24.1421 58.4399 24.1592 58.0831C24.1649 57.901 24.1159 57.8349 23.921 57.8382C23.2212 57.8495 22.5197 57.8495 21.8174 57.8405C21.633 57.8382 21.5695 57.8815 21.5728 58.0773C21.5841 58.777 21.5841 59.48 21.5728 60.1796C21.5695 60.3642 21.6127 60.427 21.8117 60.4245C22.5107 60.4131 23.213 60.4155 23.9153 60.4245C24.0964 60.427 24.1682 60.3813 24.1592 60.1878C24.1396 59.8456 24.1534 59.4995 24.1534 59.1574ZM57.855 22.8734C57.8745 23.2938 57.6477 23.858 57.921 24.0996C58.1568 24.307 58.709 24.169 59.1232 24.1543C59.5467 24.1461 60.1078 24.3446 60.3468 24.0768C60.5596 23.8432 60.4211 23.2881 60.4096 22.8759C60.3957 22.4529 60.594 21.8822 60.3297 21.6463C60.0931 21.439 59.5377 21.5768 59.1265 21.5883C58.7032 21.5998 58.1339 21.398 57.8982 21.6691C57.6934 21.9027 57.855 22.4586 57.855 22.8734ZM24.1338 22.8734C24.1133 22.4529 24.3434 21.8822 24.0676 21.6463C23.8312 21.439 23.279 21.5768 22.8646 21.5883C22.4446 21.5998 21.8777 21.398 21.6386 21.6716C21.429 21.9051 21.5693 22.4611 21.5816 22.8734C21.5929 23.2963 21.394 23.8612 21.6648 24.0996C21.898 24.3103 22.4503 24.1691 22.8646 24.1543C23.2846 24.1461 23.8572 24.3446 24.093 24.0768C24.2977 23.8432 24.1338 23.2881 24.1338 22.8734ZM40.9641 57.844C45.3581 57.844 49.7546 57.844 54.151 57.8408C54.505 57.8408 54.9683 57.9592 55.1812 57.7804C55.4145 57.5934 55.2334 57.1126 55.2562 56.7582C55.2529 56.8301 55.2619 56.6889 55.2562 56.7582C55.2848 56.0349 55.823 55.2895 56.5515 55.2659C56.8214 55.2602 57.0947 55.2348 57.3655 55.2723C57.7652 55.327 57.8435 55.1687 57.8435 54.7883C57.8288 45.8394 57.8345 36.894 57.8288 27.9451C57.8288 27.5508 58.0074 27.0233 57.7538 26.7957C57.5327 26.6062 57.0172 26.7467 56.6314 26.7385C56.6061 26.7385 56.6599 26.7409 56.6314 26.7385C55.9038 26.7123 55.2848 26.1825 55.2594 25.4566C55.2506 25.1857 55.2334 24.9121 55.2619 24.6386C55.3027 24.2639 55.1902 24.152 54.7905 24.152C45.5963 24.1667 36.4087 24.1577 27.2178 24.1577C27.1436 24.1577 27.2871 24.1725 27.2178 24.1577C26.9763 24.1202 26.7202 24.2443 26.7292 24.4516C26.7431 24.7799 26.7406 25.1113 26.7292 25.4396C26.7089 26.1914 26.168 26.7213 25.4168 26.7385C25.1436 26.7442 24.8703 26.7703 24.6028 26.7327C24.2112 26.6747 24.142 26.8332 24.142 27.1964C24.1566 36.3984 24.1533 45.6092 24.1533 54.8144C24.1533 54.8804 24.1623 54.745 24.1533 54.8144C24.1248 55.0014 24.1998 55.278 24.3866 55.2692C24.7439 55.2544 25.1037 55.2544 25.46 55.2692C26.1647 55.2952 26.6999 55.8218 26.7292 56.5281C26.7406 56.8277 26.7545 57.1298 26.7259 57.4294C26.6974 57.7542 26.7839 57.8522 27.1322 57.8522C31.7447 57.8385 36.354 57.844 40.9641 57.844ZM61.9576 62.9998H56.2032C55.4667 62.6594 55.1672 62.0748 55.2562 61.2795C55.2709 61.153 55.2391 61.0176 55.2619 60.8942C55.3256 60.5023 55.1697 60.41 54.7847 60.4133C45.7374 60.4248 36.6909 60.4215 27.6468 60.4215C26.7316 60.4215 26.7031 60.4215 26.7406 61.3547C26.7691 62.1646 26.4845 62.7254 25.699 62.9998H20.0301C19.5155 62.8267 19.1639 62.4896 19 61.9687V56.2113C19.3368 55.4732 19.9242 55.1744 20.721 55.2634C20.8474 55.278 20.9795 55.2487 21.106 55.2692C21.4975 55.3385 21.5872 55.1744 21.5872 54.7907C21.5751 45.6549 21.5783 36.5191 21.5783 27.3891C21.5783 26.7384 21.5751 26.7098 20.9363 26.7466C20.0938 26.7956 19.3768 26.6609 19 25.7939V19.9524C19.2733 19.4258 19.6329 19.0077 20.2862 19.0077C22.0074 19.0021 23.7251 18.9963 25.4429 19.0109C26.168 19.0167 26.7031 19.5638 26.7292 20.2895C26.7406 20.5573 26.7578 20.8365 26.7259 21.1051C26.6827 21.4848 26.7978 21.5942 27.1982 21.5942C36.403 21.5802 45.6053 21.5827 54.8134 21.5827C54.7382 21.5712 54.8818 21.5827 54.8134 21.5827C55.0091 21.6114 55.2676 21.5199 55.2619 21.3411C55.2481 20.9835 55.2481 20.6267 55.2594 20.269C55.2881 19.567 55.8206 19.0167 56.5254 19.011C58.2545 18.9963 59.9838 18.9963 61.7188 19.011C62.4268 19.0167 62.974 19.5613 62.9822 20.2666C62.9993 21.995 62.9993 23.7315 62.9822 25.4623C62.9765 26.1881 62.4268 26.7155 61.6958 26.7385C61.4202 26.7466 61.1461 26.7703 60.8786 26.7327C60.4732 26.6747 60.4039 26.8445 60.4039 27.2193C60.4153 36.1943 60.4129 45.1684 60.4153 54.1457C60.4153 54.5115 60.2514 54.9956 60.4903 55.2087C60.6918 55.3875 61.1697 55.2634 61.5262 55.2659C62.4732 55.2723 62.9855 55.7761 62.9855 56.7174C62.988 58.2759 62.9683 59.837 62.9993 61.398C63.0173 62.1932 62.7146 62.7312 61.9576 62.9998Z" fill="white" fill-opacity="0.8"/>
<path d="M39.7056 49.2815V47.6633V42.6342C39.7056 42.4554 39.766 42.2799 39.4462 42.2831C37.2709 42.2969 35.093 42.2913 32.9201 42.2946C32.8972 42.2946 32.9984 42.2423 32.9201 42.2946C33.1566 42.5134 33.2684 42.7901 33.4755 43.0146C33.982 43.564 33.9732 44.3275 33.4723 44.8287C32.9723 45.33 32.195 45.3528 31.6599 44.8344C30.6525 43.858 29.6599 42.8644 28.6761 41.8708C28.2072 41.3956 28.2186 40.5924 28.6876 40.1197C29.6656 39.1374 30.6525 38.1553 31.6427 37.1821C32.1746 36.6637 32.9486 36.6662 33.4585 37.1592C33.9789 37.6605 33.9902 38.441 33.4608 39.0052C33.2569 39.2215 33.0237 39.411 32.8107 39.6101C32.7218 39.6101 32.9144 39.7653 32.8107 39.6101C34.9028 39.6126 37.2912 39.7106 39.3825 39.7221C39.6444 39.7221 39.7138 39.6616 39.7113 39.3913C39.6999 37.2597 39.7056 35.1255 39.7056 32.9947C39.7056 32.94 39.7171 33.1564 39.7056 32.9947C39.4382 33.2772 39.2129 33.2364 38.9886 33.4438C38.4503 33.9507 37.6738 33.9532 37.1762 33.4584C36.655 32.9457 36.6493 32.1677 37.1877 31.615C38.1395 30.6467 39.1012 29.6849 40.0709 28.7313C40.6142 28.199 41.3712 28.199 41.9177 28.7289C42.8851 29.6825 43.8492 30.6442 44.8011 31.615C45.3393 32.1677 45.3305 32.9514 44.8124 33.4584C44.3035 33.9646 43.518 33.945 42.9658 33.4151C42.7611 33.2159 42.5653 33.0086 42.3671 32.8045C42.226 32.8788 42.3704 32.718 42.3671 32.8045C42.3671 34.9069 42.2864 37.2859 42.2807 39.3914C42.2774 39.6592 42.3442 39.7221 42.6061 39.7221C44.7407 39.7106 46.8728 39.7164 49.0049 39.7139C48.8607 39.7254 49.0572 39.7139 49.0049 39.7139C48.7341 39.4485 48.7578 39.2183 48.5474 38.9995C48.0416 38.4607 48.0416 37.6834 48.5335 37.1789C49.0367 36.6727 49.8198 36.649 50.3459 37.165C51.3385 38.1324 52.3198 39.1203 53.293 40.1115C53.7904 40.6242 53.7904 41.3811 53.293 41.897C52.3198 42.8873 51.3385 43.8694 50.3434 44.8402C49.8198 45.3586 49.0311 45.3268 48.5335 44.8207C48.0383 44.3193 48.0416 43.5413 48.5474 43.0057C48.7578 42.7868 48.9854 42.591 49.1926 42.3836C49.1176 42.2366 49.279 42.3836 49.1926 42.3836C47.0891 42.3779 44.7089 42.2914 42.6028 42.2914C42.4356 42.2914 42.2774 42.2456 42.2807 42.5305C42.2864 44.7308 42.2831 46.9343 42.3696 49.204C42.5653 48.9876 42.7554 48.7664 42.9592 48.5671C43.5351 48.0169 44.3206 48.0087 44.8361 48.5386C45.3393 49.057 45.328 49.8286 44.7839 50.3845C43.823 51.3699 42.85 52.3431 41.8752 53.3082C41.3801 53.7979 40.5946 53.7866 40.0963 53.2967C39.1207 52.3292 38.1518 51.3529 37.1901 50.3673C36.6525 49.8204 36.6525 49.0366 37.1672 48.5238C37.6794 48.0144 38.4478 48.0202 39.0115 48.5533C39.2243 48.7516 39.4177 48.9794 39.7056 49.2815Z" fill="white" fill-opacity="0.8"/>
</svg>


