<svg width="23" height="23" viewBox="0 0 23 23" fill="none" xmlns="http://www.w3.org/2000/svg">
<path d="M21.6583 23C18.9963 23 16.3662 22.4199 13.7681 21.2597C11.1699 20.0994 8.80602 18.4541 6.67639 16.3236C4.54676 14.1931 2.90183 11.8292 1.74161 9.23195C0.581389 6.63465 0.000851852 4.00456 0 1.34167C0 0.958334 0.127778 0.638889 0.383333 0.383333C0.638889 0.127778 0.958334 0 1.34167 0H6.51667C6.81482 0 7.08102 0.10137 7.31528 0.304111C7.54954 0.506852 7.68796 0.746222 7.73056 1.02222L8.56111 5.49444C8.6037 5.83519 8.59306 6.12268 8.52917 6.35694C8.46528 6.5912 8.34815 6.79352 8.17778 6.96389L5.07917 10.0944C5.50509 10.8824 6.01067 11.6435 6.59589 12.3778C7.18111 13.1121 7.82554 13.8204 8.52917 14.5028C9.18935 15.163 9.88148 15.7754 10.6056 16.3402C11.3296 16.905 12.0963 17.4212 12.9056 17.8889L15.9083 14.8861C16.1 14.6944 16.3504 14.5509 16.6597 14.4555C16.9689 14.3601 17.2721 14.3333 17.5694 14.375L21.9778 15.2694C22.2759 15.3546 22.5208 15.5092 22.7125 15.7333C22.9042 15.9573 23 16.2073 23 16.4833V21.6583C23 22.0417 22.8722 22.3611 22.6167 22.6167C22.3611 22.8722 22.0417 23 21.6583 23ZM3.86528 7.66667L5.97361 5.55833L5.43056 2.55556H2.5875C2.69398 3.4287 2.84306 4.2912 3.03472 5.14306C3.22639 5.99491 3.50324 6.83611 3.86528 7.66667ZM15.3014 19.1028C16.1319 19.4648 16.9787 19.7523 17.8416 19.9653C18.7045 20.1782 19.5721 20.3167 20.4444 20.3806V17.5694L17.4417 16.9625L15.3014 19.1028Z" fill="#7A7979"/>
</svg>


