<svg width="94" height="103" viewBox="0 0 94 103" fill="none" xmlns="http://www.w3.org/2000/svg">
<g filter="url(#filter0_d_149_7387)">
<path d="M47 0L87.7032 23.5V70.5L47 94L6.29681 70.5V23.5L47 0Z" fill="white"/>
<path d="M86.7031 24.0771V69.9219L47 92.8447L7.29688 69.9219V24.0771L47 1.1543L86.7031 24.0771Z" stroke="#192954" stroke-width="2"/>
</g>
<path opacity="0.3" d="M43.3333 59.8332H32.3333V56.1665H43.3333V59.8332ZM43.3333 52.4998H32.3333V48.8332H43.3333V52.4998ZM43.3333 45.1665H32.3333V41.4998H43.3333V45.1665ZM43.3333 37.8332H32.3333V34.1665H43.3333V37.8332ZM61.6666 59.8332H46.9999V41.4998H61.6666V59.8332ZM57.9999 45.1665H50.6666V48.8332H57.9999V45.1665ZM57.9999 52.4998H50.6666V56.1665H57.9999V52.4998Z" fill="#474242"/>
<path d="M47.0001 37.8333V30.5H28.6667V63.5H65.3334V37.8333H47.0001ZM43.3334 59.8333H32.3334V56.1667H43.3334V59.8333ZM43.3334 52.5H32.3334V48.8333H43.3334V52.5ZM43.3334 45.1667H32.3334V41.5H43.3334V45.1667ZM43.3334 37.8333H32.3334V34.1667H43.3334V37.8333ZM61.6667 59.8333H47.0001V41.5H61.6667V59.8333ZM58.0001 45.1667H50.6667V48.8333H58.0001V45.1667ZM58.0001 52.5H50.6667V56.1667H58.0001V52.5Z" fill="#192954"/>
<defs>
<filter id="filter0_d_149_7387" x="2.29688" y="0" width="89.4062" height="103" filterUnits="userSpaceOnUse" color-interpolation-filters="sRGB">
<feFlood flood-opacity="0" result="BackgroundImageFix"/>
<feColorMatrix in="SourceAlpha" type="matrix" values="0 0 0 0 0 0 0 0 0 0 0 0 0 0 0 0 0 0 127 0" result="hardAlpha"/>
<feOffset dy="5"/>
<feGaussianBlur stdDeviation="2"/>
<feComposite in2="hardAlpha" operator="out"/>
<feColorMatrix type="matrix" values="0 0 0 0 0.0705882 0 0 0 0 0.129412 0 0 0 0 0.266667 0 0 0 0.22 0"/>
<feBlend mode="normal" in2="BackgroundImageFix" result="effect1_dropShadow_149_7387"/>
<feBlend mode="normal" in="SourceGraphic" in2="effect1_dropShadow_149_7387" result="shape"/>
</filter>
</defs>
</svg>


