<svg width="82" height="82" viewBox="0 0 82 82" fill="none" xmlns="http://www.w3.org/2000/svg">
<path d="M41 0L76.507 20.5V61.5L41 82L5.49296 61.5V20.5L41 0Z" fill="#192954"/>
<path d="M28.3546 29.8907C29.6133 31.109 30.7662 32.2343 31.9431 33.3718C31.9431 32.278 31.9398 31.1817 31.9431 30.0829C31.9431 29.9369 32.0922 30.0829 31.9431 30.0829C30.8574 30.0886 29.5719 29.8907 28.3546 29.8907ZM22.9305 24.7554C22.4985 24.7554 21.9167 24.5897 21.6774 24.799C21.4035 25.043 21.6046 25.6308 21.5955 26.0726C21.5872 26.4683 21.4498 27.0033 21.651 27.23C21.8853 27.4946 22.4339 27.2967 22.8427 27.3082C23.2714 27.3198 23.8499 27.4656 24.0892 27.253C24.3663 27.0057 24.1619 26.4213 24.1736 25.9794C24.1859 25.5838 24.3199 25.0463 24.1156 24.8221C23.8846 24.5575 23.336 24.7694 22.9305 24.7554ZM31.9431 54.5936L28.0981 58.4233C29.3038 58.4233 30.5354 58.4208 31.7618 58.4233C31.7618 58.5519 31.934 58.4233 31.7618 58.4233C31.7618 57.2107 31.9431 55.7864 31.9431 54.5936ZM29.3328 27.314C30.1124 27.314 30.8829 27.3057 31.66 27.3173C31.8876 27.323 31.9489 27.2588 31.9456 27.0354C31.934 26.3602 31.934 25.6885 31.9456 25.0142C31.9489 24.7875 31.8818 24.7322 31.6567 24.7347C30.1215 24.7405 28.5822 24.7405 27.0437 24.7322C26.8219 24.7322 26.7548 24.7932 26.7606 25.0166C26.7722 25.6918 26.7755 26.3635 26.7606 27.0378C26.7548 27.2645 26.8277 27.323 27.047 27.3173C27.8091 27.3058 28.5706 27.314 29.3328 27.314ZM29.3534 19.5787C28.5913 19.5787 27.8291 19.591 27.0701 19.5729C26.8277 19.5671 26.7548 19.6396 26.7606 19.8845C26.7755 20.5529 26.7722 21.2281 26.7606 21.8999C26.7581 22.106 26.8219 22.1645 27.0238 22.1645C28.5764 22.1555 30.1273 22.1555 31.6833 22.1645C31.8876 22.1645 31.9489 22.106 31.9431 21.8999C31.9373 21.2281 31.9315 20.5529 31.9456 19.8845C31.9513 19.6396 31.8818 19.5671 31.6394 19.5729C30.8771 19.591 30.1182 19.5787 29.3534 19.5787ZM26.7813 55.9485C28.2172 54.5242 29.6043 53.1368 30.9971 51.7611C31.1925 51.5723 31.0318 51.4998 30.9301 51.3951C30.1008 50.5601 29.2657 49.7317 28.4307 48.9C27.896 48.3674 27.3647 47.8358 26.7813 47.2571L26.7813 55.9485ZM31.9165 48.7491V39.8152C30.4799 41.214 29.0025 42.6476 27.5137 44.0727C27.3416 44.2443 27.4202 43.9796 27.5137 44.0727C28.9412 45.5004 30.4302 47.2686 31.9165 48.7491ZM26.7755 41.0162C28.2991 39.5506 29.8351 38.0735 31.4176 36.5527C29.8294 35.0284 28.2932 33.5456 26.7755 32.089V41.0162ZM58.1814 40.3618C56.3739 38.8095 54.6228 37.3291 52.8881 35.8289C52.6952 35.6632 52.5902 35.6599 52.3973 35.8289C51.3173 36.7711 50.2224 37.6984 49.1332 38.6232C48.4794 39.1872 47.8198 39.7518 47.1048 40.3618L58.1814 40.3618ZM49.5132 27.3138C48.6838 26.4854 47.9134 25.7262 47.1544 24.9587C46.9906 24.7873 46.821 24.732 46.5909 24.7345C45.6771 24.7403 44.7543 24.7378 43.8349 24.7378C40.8597 24.7378 37.8903 24.7403 34.9149 24.7287C34.5881 24.7287 34.5037 24.8046 34.521 25.1244C34.5476 25.7113 34.5534 26.3024 34.5177 26.8867C34.4979 27.247 34.6087 27.3228 34.9646 27.3228C39.6563 27.308 44.3538 27.3138 49.0488 27.3138H49.5132ZM20.2971 60.9998C20.2647 60.8721 20.3815 61.046 20.2971 60.9998C19.7774 60.7088 19.2484 59.9934 19.371 59.4527C19.5082 58.8542 20.0131 58.4297 20.638 58.4231C21.704 58.4148 22.7641 58.4148 23.8293 58.4264C24.104 58.4297 24.1859 58.3653 24.1859 58.0802C24.1769 48.7985 24.1769 39.5242 24.1827 30.2392C24.1827 29.9688 24.1272 29.879 23.8383 29.8847C22.6995 29.9021 21.5666 29.893 20.4312 29.8905C19.5348 29.8872 19.006 29.3638 19.0035 28.4859C19.0002 26.8341 18.9977 25.1912 19.0035 23.5425C19.006 22.6878 19.5431 22.1643 20.4104 22.161C21.5458 22.1552 22.6846 22.1437 23.8177 22.1668C24.1305 22.1726 24.1884 22.0737 24.1859 21.7827C24.1653 20.669 24.1736 19.5496 24.1769 18.436C24.1802 17.5201 24.7024 17.0025 25.6218 17.0025C28.1097 16.9992 30.5999 16.9992 33.0844 17.0025C34.0071 17.0025 34.5235 17.5226 34.5268 18.4393C34.5293 19.5381 34.5418 20.6403 34.521 21.7422C34.5119 22.0737 34.5881 22.1701 34.9324 22.1701C39.0174 22.1553 43.0992 22.1668 47.1801 22.1519C47.7586 22.1462 48.1964 22.3325 48.5994 22.7372C50.1843 24.3388 51.7791 25.9272 53.3814 27.5091C53.7637 27.8867 53.9541 28.2996 53.945 28.8437C53.9218 30.2129 53.945 31.5885 53.9277 32.9668C53.9252 33.2347 54.0062 33.4062 54.2106 33.5834C56.9467 35.9013 59.6761 38.2333 62.4007 40.5628C62.9642 41.0425 63.1389 41.5982 62.8881 42.1595C62.6489 42.6945 62.2161 42.9533 61.6268 42.9533H56.754C52.4239 42.9533 48.1005 42.95 43.7705 42.9558C43.3327 42.9558 42.9444 42.8626 42.6407 42.5403C42.1061 41.9699 42.1881 41.1679 42.8328 40.6147C44.6195 39.0824 46.413 37.5591 48.1997 36.0266C49.1688 35.1974 50.1346 34.3632 51.1129 33.543C51.285 33.4004 51.3554 33.2578 51.353 33.0337C51.3405 32.0914 51.3405 31.1467 51.353 30.1988C51.3554 29.963 51.3033 29.8847 51.0492 29.8847C45.6449 29.893 40.2408 29.893 34.8364 29.8814C34.483 29.8814 34.5269 30.0595 34.5269 30.2746C34.5294 33.4095 34.5269 36.5436 34.5269 39.6816C34.5269 45.7856 34.5294 51.8806 34.5178 57.9845C34.5178 58.3274 34.5791 58.4437 34.9531 58.4297C35.8875 58.4032 36.8218 58.4231 37.7562 58.4231C38.6665 58.4231 39.2012 58.7808 39.3444 59.4881C39.4694 60.1219 39.1052 60.6652 38.3223 60.9998L20.2971 60.9998Z" fill="white" fill-opacity="0.8"/>
<path d="M51.3464 55.8439C51.3464 56.6171 51.3531 57.3903 51.3439 58.1643C51.3406 58.3679 51.4028 58.4314 51.6063 58.4256C52.2958 58.414 52.9876 58.414 53.6736 58.4256C53.8814 58.4314 53.9426 58.3703 53.9426 58.1643C53.931 56.617 53.931 55.0673 53.9426 53.5258C53.9426 53.3198 53.8839 53.2581 53.6769 53.2612C52.9992 53.2728 52.3247 53.2761 51.6502 53.2612C51.4086 53.2556 51.3381 53.3256 51.3406 53.5662C51.3556 54.3255 51.3464 55.0847 51.3464 55.8439ZM52.6458 48.1111C50.6083 48.1111 48.5673 48.1111 46.5322 48.1086C46.3196 48.1086 46.1647 48.0821 46.1672 48.3995C46.1764 51.6506 46.1764 54.8983 46.1706 58.1469C46.1706 58.3852 46.2435 58.4314 46.4595 58.4256C47.1049 58.414 47.7554 58.4024 48.3977 58.4314C48.713 58.443 48.7684 58.3448 48.766 58.0505C48.7511 56.0763 48.7569 54.0987 48.7602 52.127C48.7602 51.2112 49.2824 50.6903 50.1994 50.6903C51.8083 50.6878 53.4171 50.6878 55.0252 50.6878C56.0274 50.6903 56.5206 51.1882 56.5206 52.1996C56.5231 54.1598 56.5289 56.1199 56.5173 58.0827C56.5173 58.3678 56.5934 58.4372 56.874 58.4289C57.4898 58.4082 58.1055 58.4001 58.7221 58.4314C59.0547 58.4494 59.1185 58.3473 59.1185 58.0332C59.1044 54.8547 59.1044 51.6738 59.1185 48.501C59.1185 48.1869 59.0547 48.097 58.7246 48.0995C56.6986 48.1201 54.6751 48.1111 52.6458 48.1111ZM44.5352 60.9965C43.7912 60.6594 43.5661 60.0774 43.5719 59.2805C43.6009 55.2124 43.5835 51.1445 43.5835 47.079C43.5835 46.0148 44.0652 45.5317 45.1336 45.5317H60.1381C61.2091 45.5317 61.6965 46.0115 61.6965 47.0641C61.6965 51.1791 61.6882 55.2882 61.7055 59.3974C61.7113 60.197 61.4226 60.7319 60.6636 60.9965L44.5352 60.9965Z" fill="white" fill-opacity="0.8"/>
</svg>


