<svg width="82" height="82" viewBox="0 0 82 82" fill="none" xmlns="http://www.w3.org/2000/svg">
<path d="M41 0L76.507 20.5V61.5L41 82L5.49296 61.5V20.5L41 0Z" fill="#192954"/>
<path d="M48.6328 23.4725C48.6328 23.862 48.642 24.2491 48.6294 24.6329C48.3772 24.6354 48.621 24.8556 48.6294 24.6329C49.4269 24.6181 50.527 24.9378 51.3244 24.9526C51.3244 25.1437 51.5614 24.9551 51.3244 24.9526C51.316 24.1585 51.5707 23.0771 51.5916 22.283C51.5975 22.013 51.4933 21.9632 51.2505 21.9723C50.4975 21.9839 49.7445 21.9955 48.9941 21.9632C48.6714 21.9515 48.6093 22.0719 48.6269 22.3561C48.6479 22.7282 48.6328 23.1003 48.6328 23.4725ZM42.7066 55.6511C42.7066 54.3204 42.7032 52.993 42.7125 51.6623C42.7125 51.4106 42.6798 51.2844 42.3807 51.2936C41.6041 51.3134 40.8327 51.3076 40.0595 51.2936C39.8252 51.2902 40.0595 51.0593 40.0595 51.2936C40.0654 54.0015 39.7654 57.016 39.757 59.7271C39.5318 59.7296 39.7536 59.9764 39.757 59.7271C40.5133 59.7154 41.5797 60.0021 42.3327 60.0254C42.6411 60.0344 42.7184 59.9464 42.715 59.6474C42.6975 58.3175 42.7066 56.9843 42.7066 55.6511ZM53.0614 60.0171C55.3657 60.0171 57.6598 60.0079 59.9606 60.0254C60.3127 60.0288 60.3876 59.9265 60.3876 59.595C60.3749 55.0648 60.3724 50.531 60.3901 46.0039C60.3935 45.6027 60.2565 45.5438 59.8952 45.5438C55.7891 45.5553 51.6832 45.5438 47.5807 45.5587C46.8924 45.5612 46.3563 45.3444 45.8756 44.8493C44.4437 43.3758 42.9763 41.9304 41.5385 40.4601C41.3016 40.2168 41.1771 40.211 40.9335 40.4601C39.5075 41.9187 38.0553 43.3492 36.6318 44.8144C36.1309 45.3327 35.5713 45.5612 34.8503 45.5587C30.777 45.5438 26.7038 45.5612 22.6306 45.538C22.1593 45.5355 22.0761 45.6759 22.0795 46.1003C22.0937 50.5809 22.0937 55.0614 22.0795 59.542C22.0795 59.9082 22.15 60.0288 22.5534 60.0288C27.1517 60.0113 31.7552 60.0138 36.3502 60.0254C36.7149 60.0288 36.8133 59.9464 36.8133 59.5802C36.7922 56.3772 36.7981 53.1833 36.7981 49.9836C36.8015 48.9287 37.3998 48.3282 38.473 48.3248C40.3108 48.3223 42.152 48.3223 43.9958 48.3248C45.0697 48.3282 45.668 48.9253 45.668 49.9802C45.6713 53.1808 45.6772 56.3772 45.6621 59.5719C45.6595 59.9324 45.742 60.0321 46.1125 60.0288C48.4344 60.008 50.7462 60.0171 53.0614 60.0171ZM62.7825 42.5816C62.7591 42.4463 62.8035 42.6431 62.7825 42.5816C61.2111 37.8809 59.5691 32.9204 58.0069 28.2139C57.906 27.9124 57.7278 27.9181 57.4908 27.9181C46.652 27.9181 35.8107 27.9206 24.9753 27.9124C24.6526 27.9124 24.5307 28.0144 24.4299 28.3077C22.897 32.9261 21.35 37.5379 19.7904 42.1447C19.6601 42.5376 19.7492 42.5841 20.1256 42.5841C24.845 42.5759 29.5527 42.5784 34.2662 42.5816C34.551 42.5816 34.7494 42.5019 34.9485 42.2967C36.6318 40.5888 38.3276 38.8894 40.0267 37.1898C40.8242 36.3866 41.6512 36.3866 42.4545 37.1957C44.1269 38.8711 45.7982 40.5473 47.4588 42.2327C47.7076 42.4878 47.9537 42.5841 48.3151 42.5841C52.9581 42.5759 57.6069 42.5816 62.2548 42.5816L62.7825 42.5816ZM66.4708 61.9368C66.0523 62.7565 65.3709 63 64.4692 63C48.9798 62.9825 33.4931 62.9858 17.9995 62.9858C17.786 62.9858 17.57 62.9975 17.3591 62.9708C16.5087 62.8504 15.9633 62.2208 16.0019 61.4001C16.0372 60.6467 16.6683 60.0519 17.502 60.0196C17.8961 60.0054 18.2961 59.9962 18.6843 60.0254C19.0138 60.0461 19.091 59.9324 19.0877 59.6184C19.076 57.2011 19.0818 54.7831 19.0818 52.3601C19.0818 50.271 19.0642 48.1752 19.0936 46.0802C19.1028 45.6143 18.9482 45.4972 18.5247 45.5471C18.2634 45.5728 17.9995 45.5553 17.7357 45.5495C16.491 45.5146 15.8331 44.5976 16.2212 43.428C17.2464 40.363 18.2784 37.2978 19.3104 34.236C20.2112 31.5546 21.1096 28.8758 22.0138 26.1978C22.3163 25.2833 22.7819 24.9461 23.7508 24.9461C30.8837 24.9461 38.0107 24.9436 45.1402 24.9551C45.5495 24.9551 45.6949 24.8904 45.6831 24.4426C45.6444 23.1618 45.6679 21.8784 45.6713 20.5951C45.6713 19.634 46.2872 19.0127 47.263 19.0069C49.1511 18.9977 51.0394 18.9977 52.931 19.0069C53.9454 19.0127 54.5411 19.6157 54.5437 20.6149C54.5496 21.8693 54.5681 23.1211 54.5352 24.3688C54.5236 24.8172 54.6093 24.9784 55.1101 24.9609C56.2874 24.9169 57.4698 24.9461 58.6529 24.9461C59.7026 24.9461 60.1378 25.2542 60.4673 26.2269C62.3908 31.9468 64.3093 37.6609 66.2303 43.3782C66.648 44.6325 65.9875 45.5296 64.6379 45.5553C64.2379 45.5612 63.7043 45.3767 63.458 45.6318C63.2153 45.881 63.3934 46.4051 63.3934 46.8071C63.39 51.0443 63.3934 55.2782 63.3816 59.5186C63.3782 59.9115 63.4521 60.0901 63.8825 60.0229C64.0724 59.9937 64.2732 60.0344 64.469 60.0137C65.3708 59.9198 66.0522 60.243 66.4707 61.0628L66.4708 61.9368Z" fill="white" fill-opacity="0.8"/>
<path d="M29.4065 54.1467C29.3738 54.1492 29.4392 54.1467 29.4065 54.1467C29.8603 54.1143 30.5569 54.3693 30.815 54.0794C31.0343 53.8278 30.8914 53.2447 30.883 52.8135C30.8712 52.3152 31.0964 51.6498 30.788 51.3715C30.5183 51.1282 29.8544 51.2868 29.3679 51.3043C28.8997 51.3158 28.277 51.0932 28.0098 51.3948C27.7787 51.6498 27.9275 52.2536 27.9393 52.7047C27.9511 53.1856 27.7284 53.8303 28.0309 54.0969C28.2947 54.3286 28.9318 54.1467 29.4065 54.1467ZM33.8469 52.7312C33.8469 53.6724 33.8537 54.6161 33.8469 55.5531C33.841 56.4826 33.2755 57.1179 32.3444 57.1329C30.3905 57.162 28.4343 57.162 26.4804 57.1329C25.5552 57.1179 24.9745 56.4709 24.9711 55.5531C24.9686 53.6724 24.9686 51.791 24.9711 49.9062C24.9745 48.9684 25.582 48.3389 26.5274 48.333C28.4484 48.318 30.373 48.318 32.2965 48.333C33.2426 48.3389 33.841 48.9569 33.8469 49.9062C33.8537 50.8474 33.8469 51.791 33.8469 52.7312Z" fill="white" fill-opacity="0.8"/>
<path d="M54.5033 52.7786C54.5033 52.374 54.5302 51.9728 54.5454 51.5659C54.5538 51.3548 54.7589 51.5626 54.5454 51.5659C53.742 51.5776 52.663 51.3051 51.8562 51.2934C51.6428 51.2901 51.8529 51.0882 51.8562 51.2934C51.8655 52.0725 51.5983 53.1249 51.5865 53.9042C51.3814 53.9067 51.5831 54.1176 51.5865 53.9042C52.0133 53.8892 52.7159 54.1825 53.1461 54.1708C53.5932 54.1592 54.2193 54.3643 54.4529 54.0886C54.6781 53.822 54.5033 53.2272 54.5033 52.7786ZM57.5034 52.7462C57.5034 53.6932 57.5101 54.6334 57.5008 55.5713C57.4949 56.4916 56.9134 57.1188 55.9832 57.1304C54.0445 57.1594 52.1025 57.157 50.1697 57.1338C49.2176 57.1213 48.631 56.4826 48.631 55.5389C48.6276 53.6582 48.6251 51.771 48.631 49.8921C48.631 48.9809 49.2386 48.3396 50.152 48.3305C52.0907 48.3189 54.0294 48.3189 55.968 48.3305C56.8934 48.3396 57.495 48.9634 57.5009 49.8747C57.5101 50.8299 57.5034 51.7885 57.5034 52.7462Z" fill="white" fill-opacity="0.8"/>
</svg>


