<svg width="82" height="82" viewBox="0 0 82 82" fill="none" xmlns="http://www.w3.org/2000/svg">
<path d="M41 0L76.507 20.5V61.5L41 82L5.49296 61.5V20.5L41 0Z" fill="#192954"/>
<path d="M44.8352 56.039C44.8352 54.6938 44.8294 53.3486 44.8409 52.0043C44.8442 51.7408 45.1358 52.0043 44.8409 52.0043C42.1676 52.016 39.156 51.6529 36.4828 51.6413C36.2198 51.6413 36.4828 51.3834 36.4828 51.6413C36.4909 54.3489 36.1706 57.384 36.1593 60.0884C35.9045 60.0884 36.156 60.3926 36.1593 60.0884C38.8153 60.0826 41.8384 60.4159 44.4969 60.4274C44.5002 60.705 44.777 60.4274 44.4969 60.4274C44.4854 59.0831 44.8352 57.384 44.8352 56.039ZM53.8061 40.9929C53.8061 34.6625 53.8061 28.333 53.8117 22.0027C53.8117 21.6984 53.7773 21.5675 53.4129 21.5675C44.8065 21.5816 36.2018 21.5791 27.5897 21.57C27.2858 21.57 27.1874 21.6231 27.1874 21.9621C27.1932 34.6509 27.1932 47.3348 27.1907 60.027C27.1907 60.3428 27.2537 60.4332 27.5782 60.4307C29.465 60.4133 31.3468 60.4133 33.2279 60.4307C33.5604 60.4332 33.6154 60.3337 33.6154 60.0237C33.6038 56.89 33.6071 53.7522 33.6096 50.6152C33.6096 49.5129 34.0635 49.048 35.1474 49.048C38.7169 49.0455 42.2831 49.0455 45.8551 49.048C46.9423 49.048 47.3928 49.5096 47.3928 50.6152C47.3928 53.7349 47.4018 56.8577 47.3839 59.9797C47.3814 60.3255 47.4477 60.4331 47.8148 60.4306C49.6532 60.41 51.4965 60.41 53.3349 60.4306C53.7249 60.4365 53.8175 60.3311 53.815 59.9425C53.8061 53.627 53.8061 47.3117 53.8061 40.9929ZM55.4536 19C56.1557 19.3423 56.3899 19.9092 56.3899 20.6898C56.3753 33.7649 56.381 46.8409 56.3695 59.9161C56.3695 60.3081 56.4334 60.4507 56.8578 60.4332C57.7917 60.3926 58.7306 60.4191 59.6614 60.4216C60.4421 60.4249 61.0025 60.9686 61 61.7112C60.9967 62.4538 60.4363 62.9975 59.6556 62.9975C46.8841 63.0008 34.115 63.0008 21.347 62.9975C20.5661 62.9975 20.0025 62.4504 20 61.7079C20 60.9686 20.5636 60.4249 21.3412 60.4216C22.2596 60.4191 23.1821 60.3893 24.1013 60.4332C24.5609 60.454 24.6329 60.2989 24.6329 59.8722C24.6183 50.1768 24.6216 40.4816 24.6216 30.7863C24.6216 27.4205 24.6354 24.0556 24.6101 20.6898C24.6035 19.9066 24.8467 19.3423 25.5489 19L55.4536 19Z" fill="white" fill-opacity="0.8"/>
<path d="M32.7946 41.0857C32.7946 41.6295 32.8002 42.1731 32.7921 42.7143C32.5717 42.7176 32.7888 42.9042 32.7921 42.7143C33.8522 42.7027 35.1588 42.9862 36.2223 42.9978C36.2223 43.2017 36.4246 43.0011 36.2223 42.9978C36.214 41.9386 36.477 40.6117 36.4828 39.5565C36.4853 39.3668 36.7048 39.554 36.4828 39.5565C35.4251 39.5657 34.1151 39.2848 33.0551 39.2757C32.8551 39.2732 33.0493 39.0627 33.0551 39.2757C33.0664 39.7878 32.7946 40.571 32.7946 41.0857ZM34.6559 36.6972C35.6414 36.6972 36.6361 36.6939 37.624 36.6997C38.5227 36.703 39.0487 37.2235 39.052 38.127C39.0544 40.1442 39.0544 42.1616 39.052 44.1763C39.0487 45.0473 38.5202 45.606 37.656 45.6117C35.6471 45.6233 33.6383 45.62 31.6328 45.6117C30.7487 45.606 30.2285 45.0473 30.2252 44.144V38.1386C30.2285 37.226 30.7455 36.703 31.6443 36.6997C32.6446 36.6939 33.6498 36.6972 34.6559 36.6972Z" fill="white" fill-opacity="0.8"/>
<path d="M46.3959 39.2782C45.8585 39.2782 45.3211 39.284 44.786 39.2748C44.5895 39.2723 44.786 39.0644 44.786 39.2748C44.7975 40.334 44.5255 41.6526 44.5198 42.7077C44.292 42.711 44.5198 42.8917 44.5198 42.7077C45.5773 42.7019 46.8817 42.9945 47.9419 42.997C47.9452 43.2042 48.1417 42.997 47.9419 42.997C47.9336 41.9353 48.2024 40.6174 48.2139 39.5615C48.2139 39.3312 48.4335 39.5557 48.2139 39.5615C47.7076 39.574 46.9047 39.2782 46.3959 39.2782ZM46.3787 36.6964C47.3667 36.6964 48.358 36.6931 49.3469 36.6964C50.2513 36.7022 50.7716 37.2194 50.7773 38.1236C50.7806 40.1409 50.7806 42.1583 50.7773 44.1788C50.7716 45.0524 50.2481 45.6052 49.3813 45.6109C47.3725 45.6201 45.3702 45.6201 43.3581 45.6109C42.4741 45.6052 41.9539 45.0524 41.9506 44.1465C41.9506 42.1408 41.9481 40.1376 41.9506 38.1378C41.9539 37.226 42.4708 36.7022 43.3639 36.6964C44.3699 36.6931 45.3727 36.6964 46.3787 36.6964Z" fill="white" fill-opacity="0.8"/>
<path d="M32.7946 29.0963C32.7946 29.6401 32.8035 30.1838 32.7921 30.7249C32.5701 30.7274 32.7863 30.9528 32.7921 30.7249C33.8391 30.7133 35.1679 31.0084 36.2165 31.0176C36.219 31.228 36.4165 31.0176 36.2165 31.0176C36.2108 29.9467 36.477 28.6048 36.4828 27.5323C36.4853 27.3418 36.6647 27.5323 36.4828 27.5323C35.4251 27.5382 34.1184 27.2954 33.0607 27.2838C32.8174 27.2804 33.0574 27.0791 33.0607 27.2838C33.0688 27.7836 32.7946 28.5965 32.7946 29.0963ZM34.61 33.605H31.6418C30.7775 33.6017 30.2285 33.0579 30.2285 32.1986C30.222 30.1663 30.222 28.1341 30.2252 26.1019C30.2285 25.2366 30.7775 24.6838 31.6328 24.6838C33.6416 24.678 35.6471 24.678 37.6584 24.6838C38.4941 24.6838 39.0487 25.2366 39.0487 26.073C39.0544 28.12 39.0544 30.1638 39.0487 32.2068C39.0487 33.0522 38.4974 33.6016 37.6674 33.605C36.6474 33.6075 35.6267 33.605 34.61 33.605Z" fill="white" fill-opacity="0.8"/>
<path d="M46.3533 31.0126C46.8768 31.0126 47.397 31.0034 47.9197 31.0151C47.923 31.2405 48.1401 31.0209 47.9197 31.0151C47.9082 29.9592 48.2065 28.6115 48.2147 27.5565C48.2147 27.3485 48.4137 27.554 48.2147 27.5565C47.157 27.5623 45.8215 27.2929 44.7673 27.2871C44.5903 27.2871 44.764 27.0966 44.7673 27.2871C44.7755 28.3571 44.5239 29.6732 44.5157 30.7465C44.3133 30.7523 44.5124 30.9512 44.5157 30.7465C45.0359 30.7382 45.8273 31.0126 46.3533 31.0126ZM46.3131 33.6058C45.3276 33.6058 44.3362 33.6083 43.345 33.6025C42.5093 33.6 41.958 33.0564 41.9547 32.22C41.9489 30.173 41.9489 28.1267 41.9547 26.0795C41.958 25.2433 42.5068 24.6855 43.3359 24.6822C45.3562 24.6789 47.3799 24.6764 49.4058 24.6822C50.212 24.6855 50.7666 25.2374 50.7699 26.0505C50.7781 28.1117 50.7756 30.1705 50.7699 32.2317C50.7666 33.0473 50.2178 33.6001 49.414 33.6025C48.3826 33.6084 47.3478 33.6058 46.3131 33.6058Z" fill="white" fill-opacity="0.8"/>
</svg>


