<svg width="33" height="30" viewBox="0 0 33 30" fill="none" xmlns="http://www.w3.org/2000/svg">
<path fill-rule="evenodd" clip-rule="evenodd" d="M1.65324 16.6661C0.135575 16.6661 -0.57707 14.771 0.557882 13.7543L15.4046 0.420463C15.7065 0.149599 16.0963 0 16.5 0C16.9037 0 17.2935 0.149599 17.5954 0.420463L32.4421 13.7543C33.5771 14.771 32.8644 16.6661 31.3468 16.6661H29.6971V28.3333C29.6971 28.7753 29.5233 29.1993 29.214 29.5118C28.9046 29.8244 28.485 30 28.0475 30H4.95252C4.51501 30 4.09542 29.8244 3.78605 29.5118C3.47668 29.1993 3.30288 28.7753 3.30288 28.3333V16.6661H1.65324ZM11.5511 26.6665V18.3329C11.5511 17.8908 11.7249 17.4669 12.0343 17.1543C12.3436 16.8417 12.7632 16.6661 13.2007 16.6661H19.7993C20.2368 16.6661 20.6564 16.8417 20.9657 17.1543C21.2751 17.4669 21.4489 17.8908 21.4489 18.3329V26.6665H26.3978V14.9994C26.3978 14.7029 26.476 14.4117 26.6245 14.1559C26.773 13.9002 26.9863 13.689 27.2425 13.5443L16.5 3.89394L5.75755 13.5443C6.01371 13.689 6.22702 13.9002 6.37549 14.1559C6.52396 14.4117 6.60221 14.7029 6.60216 14.9994V26.6665H11.5511ZM14.8504 26.6665V19.9996H18.1496V26.6665H14.8504Z" fill="#192954"/>
</svg>


