<svg width="37" height="37" viewBox="0 0 37 37" fill="none" xmlns="http://www.w3.org/2000/svg">
<path d="M34.0215 9.53809V27.4609L18.5 36.4229L2.97852 27.4609V9.53809L18.5 0.576172L34.0215 9.53809Z" fill="#F4F4F4" stroke="#192954"/>
<path d="M17.6502 14.2655C17.4493 14.0955 17.1768 14 16.8927 14C16.6086 14 16.3361 14.0955 16.1352 14.2655L11.3137 18.3468C11.1128 18.5168 11 18.7475 11 18.988C11 19.2285 11.1128 19.4591 11.3137 19.6292L16.1352 23.7104C16.3373 23.8756 16.6079 23.967 16.8889 23.965C17.1698 23.9629 17.4385 23.8675 17.6372 23.6994C17.8358 23.5312 17.9485 23.3037 17.951 23.0659C17.9534 22.8282 17.8454 22.5991 17.6502 22.428L14.7498 19.8949H24.9286C25.2127 19.8949 25.4852 19.7994 25.6862 19.6293C25.8871 19.4592 26 19.2285 26 18.988C26 18.7474 25.8871 18.5168 25.6862 18.3467C25.4852 18.1766 25.2127 18.081 24.9286 18.081H14.7498L17.6502 15.548C17.8511 15.3779 17.9639 15.1472 17.9639 14.9067C17.9639 14.6663 17.8511 14.4356 17.6502 14.2655Z" fill="#192954"/>
</svg>


