<svg width="25" height="22" viewBox="0 0 25 22" fill="none" xmlns="http://www.w3.org/2000/svg">
<path d="M0 2.44447C0 1.79616 0.263392 1.1744 0.732233 0.71597C1.20107 0.257542 1.83696 0 2.5 0H22.5C23.163 0 23.7989 0.257542 24.2678 0.71597C24.7366 1.1744 25 1.79616 25 2.44447V15.8891C25 16.5374 24.7366 17.1592 24.2678 17.6176C23.7989 18.076 23.163 18.3336 22.5 18.3336H16.7675L13.3837 21.6421C13.1493 21.8713 12.8315 22 12.5 22C12.1685 22 11.8507 21.8713 11.6163 21.6421L8.2325 18.3336H2.5C1.83696 18.3336 1.20107 18.076 0.732233 17.6176C0.263392 17.1592 0 16.5374 0 15.8891V2.44447ZM22.5 2.44447H2.5V15.8891H8.75C9.08149 15.8891 9.39938 16.018 9.63375 16.2472L12.5 19.0498L15.3663 16.2472C15.6006 16.018 15.9185 15.8891 16.25 15.8891H22.5V2.44447ZM5 6.7223C5 6.39814 5.1317 6.08726 5.36612 5.85805C5.60054 5.62884 5.91848 5.50007 6.25 5.50007H18.75C19.0815 5.50007 19.3995 5.62884 19.6339 5.85805C19.8683 6.08726 20 6.39814 20 6.7223C20 7.04646 19.8683 7.35734 19.6339 7.58655C19.3995 7.81577 19.0815 7.94454 18.75 7.94454H6.25C5.91848 7.94454 5.60054 7.81577 5.36612 7.58655C5.1317 7.35734 5 7.04646 5 6.7223ZM5 11.6112C5 11.2871 5.1317 10.9762 5.36612 10.747C5.60054 10.5178 5.91848 10.389 6.25 10.389H13.75C14.0815 10.389 14.3995 10.5178 14.6339 10.747C14.8683 10.9762 15 11.2871 15 11.6112C15 11.9354 14.8683 12.2463 14.6339 12.4755C14.3995 12.7047 14.0815 12.8335 13.75 12.8335H6.25C5.91848 12.8335 5.60054 12.7047 5.36612 12.4755C5.1317 12.2463 5 11.9354 5 11.6112Z" fill="#7A7979"/>
</svg>


