<svg width="23" height="23" viewBox="0 0 23 23" fill="none" xmlns="http://www.w3.org/2000/svg">
<path d="M1 19.375C1 17.9826 1.55312 16.6473 2.53769 15.6627C3.52226 14.6781 4.85761 14.125 6.25 14.125H16.75C18.1424 14.125 19.4777 14.6781 20.4623 15.6627C21.4469 16.6473 22 17.9826 22 19.375C22 20.0712 21.7234 20.7389 21.2312 21.2312C20.7389 21.7234 20.0712 22 19.375 22H3.625C2.92881 22 2.26113 21.7234 1.76884 21.2312C1.27656 20.7389 1 20.0712 1 19.375Z" stroke="#7A7979" stroke-width="2" stroke-linejoin="round"/>
<path d="M11.5 8.875C13.6746 8.875 15.4375 7.11212 15.4375 4.9375C15.4375 2.76288 13.6746 1 11.5 1C9.32538 1 7.5625 2.76288 7.5625 4.9375C7.5625 7.11212 9.32538 8.875 11.5 8.875Z" stroke="#7A7979" stroke-width="2"/>
</svg>


