<svg width="94" height="103" viewBox="0 0 94 103" fill="none" xmlns="http://www.w3.org/2000/svg">
<g filter="url(#filter0_d_149_7389)">
<path d="M47 0L87.7032 23.5V70.5L47 94L6.29681 70.5V23.5L47 0Z" fill="white"/>
<path d="M86.7031 24.0771V69.9219L47 92.8447L7.29688 69.9219V24.0771L47 1.1543L86.7031 24.0771Z" stroke="#192954" stroke-width="2"/>
</g>
<path d="M36.0046 47V41.5714H58.0015V47H36.0046ZM52.5023 57.8571V55.1429H58.0015V57.8571H52.5023ZM69 32.0714C69.0004 32.9137 68.7362 33.7355 68.2438 34.4233C67.7513 35.1112 67.0549 35.6314 66.2504 35.9121V64.6429C66.2504 65.0028 66.1055 65.348 65.8477 65.6025C65.5899 65.857 65.2402 66 64.8756 66H47.0031V53.7857C47.0031 53.4258 46.8582 53.0806 46.6004 52.8261C46.3426 52.5716 45.9929 52.4286 45.6283 52.4286H34.6298C34.2652 52.4286 33.9155 52.5716 33.6577 52.8261C33.3998 53.0806 33.255 53.4258 33.255 53.7857V66H29.1306C28.766 66 28.4163 65.857 28.1584 65.6025C27.9006 65.348 27.7558 65.0028 27.7558 64.6429V35.9121C26.8369 35.5931 26.0622 34.9633 25.5686 34.1344C25.0751 33.3054 24.8947 32.3308 25.0594 31.3831C25.224 30.4355 25.7231 29.5759 26.4683 28.9567C27.2135 28.3375 28.1566 27.9986 29.1306 28H64.8756C65.9694 28 67.0185 28.429 67.792 29.1925C68.5655 29.956 69 30.9916 69 32.0714ZM27.7558 32.0714C27.7558 32.4314 27.9006 32.7766 28.1584 33.0311C28.4163 33.2856 28.766 33.4286 29.1306 33.4286H64.8756C65.2402 33.4286 65.5899 33.2856 65.8477 33.0311C66.1055 32.7766 66.2504 32.4314 66.2504 32.0714C66.2504 31.7115 66.1055 31.3663 65.8477 31.1118C65.5899 30.8573 65.2402 30.7143 64.8756 30.7143H29.1306C28.766 30.7143 28.4163 30.8573 28.1584 31.1118C27.9006 31.3663 27.7558 31.7115 27.7558 32.0714ZM34.6298 38.8571C34.2652 38.8571 33.9155 39.0001 33.6577 39.2546C33.3998 39.5092 33.255 39.8544 33.255 40.2143V48.3571C33.255 48.7171 33.3998 49.0623 33.6577 49.3168C33.9155 49.5713 34.2652 49.7143 34.6298 49.7143H59.3763C59.741 49.7143 60.0907 49.5713 60.3485 49.3168C60.6063 49.0623 60.7512 48.7171 60.7512 48.3571V40.2143C60.7512 39.8544 60.6063 39.5092 60.3485 39.2546C60.0907 39.0001 59.741 38.8571 59.3763 38.8571H34.6298ZM51.1275 52.4286C50.7629 52.4286 50.4132 52.5716 50.1554 52.8261C49.8975 53.0806 49.7527 53.4258 49.7527 53.7857V59.2143C49.7527 59.5742 49.8975 59.9194 50.1554 60.1739C50.4132 60.4284 50.7629 60.5714 51.1275 60.5714H59.3763C59.741 60.5714 60.0907 60.4284 60.3485 60.1739C60.6063 59.9194 60.7512 59.5742 60.7512 59.2143V53.7857C60.7512 53.4258 60.6063 53.0806 60.3485 52.8261C60.0907 52.5716 59.741 52.4286 59.3763 52.4286H51.1275ZM36.0046 66H44.2535V55.1429H36.0046V66Z" fill="#192954"/>
<defs>
<filter id="filter0_d_149_7389" x="2.29688" y="0" width="89.4062" height="103" filterUnits="userSpaceOnUse" color-interpolation-filters="sRGB">
<feFlood flood-opacity="0" result="BackgroundImageFix"/>
<feColorMatrix in="SourceAlpha" type="matrix" values="0 0 0 0 0 0 0 0 0 0 0 0 0 0 0 0 0 0 127 0" result="hardAlpha"/>
<feOffset dy="5"/>
<feGaussianBlur stdDeviation="2"/>
<feComposite in2="hardAlpha" operator="out"/>
<feColorMatrix type="matrix" values="0 0 0 0 0.0705882 0 0 0 0 0.129412 0 0 0 0 0.266667 0 0 0 0.22 0"/>
<feBlend mode="normal" in2="BackgroundImageFix" result="effect1_dropShadow_149_7389"/>
<feBlend mode="normal" in="SourceGraphic" in2="effect1_dropShadow_149_7389" result="shape"/>
</filter>
</defs>
</svg>


