<svg width="37" height="37" viewBox="0 0 37 37" fill="none" xmlns="http://www.w3.org/2000/svg">
<path d="M18.5 0L34.5215 9.25V27.75L18.5 37L2.47853 27.75V9.25L18.5 0Z" fill="#192954"/>
<path d="M19.3498 14.2655C19.5507 14.0955 19.8232 14 20.1073 14C20.3914 14 20.6639 14.0955 20.8648 14.2655L25.6863 18.3468C25.8872 18.5168 26 18.7475 26 18.988C26 19.2285 25.8872 19.4591 25.6863 19.6292L20.8648 23.7104C20.6627 23.8756 20.3921 23.967 20.1111 23.965C19.8302 23.9629 19.5615 23.8675 19.3628 23.6994C19.1642 23.5312 19.0515 23.3037 19.049 23.0659C19.0466 22.8282 19.1546 22.5991 19.3498 22.428L22.2502 19.8949H12.0714C11.7873 19.8949 11.5148 19.7994 11.3138 19.6293C11.1129 19.4592 11 19.2285 11 18.988C11 18.7474 11.1129 18.5168 11.3138 18.3467C11.5148 18.1766 11.7873 18.081 12.0714 18.081H22.2502L19.3498 15.548C19.1489 15.3779 19.0361 15.1472 19.0361 14.9067C19.0361 14.6663 19.1489 14.4356 19.3498 14.2655Z" fill="white"/>
</svg>


