<svg width="30" height="30" viewBox="0 0 30 30" fill="none" xmlns="http://www.w3.org/2000/svg">
<path d="M12.9772 0.836709C13.4836 0.330954 14.1611 0.0333599 14.8762 0.00263911C15.5912 -0.0280817 16.2918 0.210302 16.8397 0.67076L17.0228 0.83814L19.7409 3.55485H23.5834C24.305 3.55499 24.9999 3.82777 25.5289 4.31856C26.0579 4.80935 26.3819 5.4819 26.436 6.20147L26.4446 6.41606V10.2587L29.1627 12.9768C29.6688 13.4833 29.9666 14.1612 29.9974 14.8765C30.0281 15.5919 29.7895 16.2928 29.3286 16.8409L29.1612 17.0225L26.4431 19.7407V23.5833C26.4434 24.3051 26.1707 25.0004 25.6799 25.5297C25.1891 26.059 24.5164 26.3832 23.7966 26.4373L23.5834 26.4445H19.7423L17.0243 29.1626C16.5178 29.6688 15.8399 29.9666 15.1246 29.9974C14.4092 30.0281 13.7083 29.7895 13.1603 29.3286L12.9786 29.1626L10.2605 26.4445H6.41657C5.69474 26.4447 4.9995 26.1721 4.47021 25.6813C3.94093 25.1904 3.61672 24.5177 3.56258 23.7979L3.55543 23.5833V19.7407L0.837344 17.0225C0.3312 16.5161 0.0333603 15.8382 0.00263711 15.1228C-0.028086 14.4074 0.210541 13.7065 0.671398 13.1585L0.837344 12.9768L3.55543 10.2587V6.41606C3.55556 5.69446 3.82834 4.99955 4.31912 4.47056C4.8099 3.94157 5.48243 3.61756 6.20199 3.56344L6.41657 3.55485H10.2591L12.9772 0.836709ZM15 2.86244L12.2819 5.58059C11.8067 6.05505 11.1798 6.34725 10.5109 6.40604L10.2591 6.41606H6.41657V10.2587C6.41674 10.9309 6.18022 11.5817 5.7485 12.097L5.57826 12.283L2.86017 15.0011L5.57826 17.7178C6.05323 18.1928 6.34595 18.8198 6.40513 19.4889L6.41657 19.7407V23.5833H10.2591C10.9313 23.5831 11.5821 23.8196 12.0974 24.2514L12.2833 24.4216L15 27.1398L17.7181 24.4216C18.1931 23.9466 18.82 23.6539 19.4891 23.5947L19.7409 23.5833H23.5834V19.7407C23.5833 19.0685 23.8198 18.4176 24.2515 17.9024L24.4217 17.7164L27.1398 14.9997L24.4217 12.2815C23.9468 11.8065 23.654 11.1796 23.5949 10.5104L23.5834 10.2587V6.41606H19.7409C19.0687 6.41623 18.4179 6.1797 17.9026 5.74797L17.7167 5.57773L14.9986 2.85958L15 2.86244ZM19.4062 10.685C19.6636 10.4284 20.0091 10.2794 20.3723 10.2683C20.7356 10.2573 21.0895 10.3849 21.3621 10.6252C21.6348 10.8656 21.8057 11.2008 21.8401 11.5626C21.8746 11.9244 21.7701 12.2858 21.5477 12.5734L21.4276 12.7078L14.4464 19.6892C14.1738 19.9621 13.8105 20.1254 13.4255 20.1481C13.0404 20.1708 12.6605 20.0513 12.3577 19.8122L12.2204 19.6906L8.78131 16.2514C8.52201 15.9946 8.37069 15.6483 8.35831 15.2836C8.34594 14.9188 8.47344 14.5631 8.71474 14.2893C8.95603 14.0154 9.29286 13.8442 9.65628 13.8106C10.0197 13.7769 10.3822 13.8835 10.6697 14.1084L10.8041 14.2271L13.3334 16.7565L19.4062 10.685Z" fill="#192954"/>
</svg>


