<svg width="196" height="68" viewBox="0 0 196 68" fill="none" xmlns="http://www.w3.org/2000/svg">
<path d="M79.9515 23.664V26.132H79.6825C79.5036 25.5855 79.1954 25.1263 78.7588 24.7533C78.3219 24.3814 77.8702 24.1954 77.4057 24.1954C76.9863 24.1954 76.6297 24.3177 76.3357 24.5621C76.0423 24.8071 75.895 25.106 75.895 25.46C75.895 25.6322 75.9337 25.803 76.0101 25.9725C76.0876 26.1414 76.1988 26.2989 76.3447 26.4442C76.4907 26.5907 76.961 26.9151 77.7559 27.4184C78.5661 27.9216 79.0888 28.273 79.3234 28.4702C79.5586 28.6685 79.7835 28.9214 79.9987 29.2288C80.3256 29.7031 80.489 30.2215 80.489 30.7852C80.489 31.6181 80.2009 32.2803 79.6251 32.7704C79.0489 33.2604 78.351 33.5049 77.5316 33.5049C77.0911 33.5049 76.5663 33.424 75.9564 33.263C75.6339 33.1796 75.4084 33.1382 75.2806 33.1382C75.0654 33.1382 74.9089 33.2393 74.8121 33.443H74.5432V30.6236H74.8121C74.9504 31.352 75.2372 31.9261 75.6722 32.3453C76.1076 32.765 76.6425 32.9747 77.2777 32.9747C77.7701 32.9747 78.1752 32.8492 78.4957 32.5995C78.8155 32.3499 78.9758 32.0319 78.9758 31.6464C78.9758 31.3343 78.8738 31.0386 78.6683 30.7602C78.4635 30.4817 77.9147 30.0724 77.0226 29.5331C76.2019 29.0352 75.6592 28.65 75.3936 28.3795C75.128 28.1081 74.9278 27.8046 74.7921 27.4683C74.657 27.132 74.5892 26.7759 74.5892 26.4007C74.5892 25.598 74.8593 24.941 75.3987 24.43C75.9383 23.9196 76.6323 23.6639 77.4812 23.6639C77.7416 23.6639 78.0563 23.7081 78.4246 23.7967C78.7929 23.8801 79.0532 23.9222 79.2071 23.9222C79.3551 23.9222 79.5141 23.8362 79.6825 23.6639L79.9515 23.664Z" fill="#A3D3F2"/>
<path d="M82.2493 31.1385C82.5724 31.1385 82.8469 31.2537 83.0752 31.4821C83.3032 31.7114 83.4175 31.99 83.4175 32.3184C83.4175 32.6462 83.3032 32.9268 83.0752 33.1581C82.8469 33.3899 82.5724 33.5056 82.2493 33.5056C81.927 33.5056 81.6529 33.3899 81.4275 33.1581C81.202 32.9268 81.0896 32.6462 81.0896 32.3184C81.0896 31.99 81.202 31.7114 81.4275 31.4821C81.6529 31.2537 81.927 31.1385 82.2493 31.1385Z" fill="#A3D3F2"/>
<path d="M90.2904 23.9058V24.1797C89.7986 24.3039 89.4814 24.4478 89.338 24.6087C89.1944 24.7703 89.1228 25.0417 89.1228 25.4214V31.7246C89.1228 32.1149 89.2235 32.3802 89.4264 32.5208C89.6286 32.662 90.0113 32.7324 90.5747 32.7324C91.1639 32.7324 91.6206 32.6004 91.9463 32.3375C92.2707 32.0755 92.6107 31.5736 92.9641 30.8345H93.2328L92.9641 33.2631H85.9424V32.9899C86.4304 32.865 86.745 32.7166 86.8846 32.5445C87.0247 32.373 87.0945 32.0162 87.0945 31.4743V25.4916C87.0945 25.0693 87.0196 24.7743 86.8698 24.6049C86.7192 24.436 86.4102 24.294 85.9424 24.1797V23.9058L90.2904 23.9058Z" fill="#A3D3F2"/>
<path d="M97.4735 32.2245V29.9358C96.6896 30.2741 96.1709 30.5665 95.9176 30.8108C95.6643 31.0559 95.537 31.3706 95.537 31.7555C95.537 32.0839 95.6132 32.348 95.7638 32.5484C95.915 32.7493 96.1139 32.8493 96.3596 32.8493C96.6924 32.8493 97.0638 32.6409 97.4735 32.2245ZM95.4608 33.5048C94.969 33.5048 94.5503 33.3504 94.2047 33.0404C93.8589 32.7311 93.6858 32.3572 93.6858 31.9198C93.6858 31.4821 93.8576 31.1188 94.2007 30.8298C94.544 30.5408 95.261 30.251 96.3516 29.9595C96.879 29.8189 97.2583 29.7039 97.4883 29.6151C97.4883 29.0587 97.3708 28.6548 97.1356 28.4051C96.8997 28.1556 96.5255 28.0301 96.0138 28.0301C95.2093 28.0301 94.6156 28.3656 94.2311 29.0371H94.0004C94.1595 28.3867 94.4708 27.8835 94.934 27.5262C95.398 27.1701 95.9725 26.9913 96.6587 26.9913C97.4528 26.9913 98.0865 27.1891 98.5602 27.5852C99.0338 27.9807 99.271 28.5352 99.271 29.2486V32.0918C99.271 32.6279 99.3911 32.8959 99.6322 32.8959C99.8829 32.8959 100.039 32.7087 100.101 32.3335H100.354C100.324 32.7087 100.183 32.9977 99.9312 33.2007C99.6806 33.4037 99.3401 33.5048 98.9098 33.5048C98.5461 33.5048 98.2534 33.4392 98.0305 33.3057C97.8074 33.1731 97.6213 32.9557 97.4735 32.6534L97.3352 32.7862C96.802 33.2657 96.1773 33.5048 95.4608 33.5048Z" fill="#A3D3F2"/>
<path d="M101.238 33.505V31.1775H101.507C102.099 32.4434 102.815 33.0761 103.656 33.0761C103.943 33.0761 104.191 32.9901 104.399 32.8173C104.606 32.6451 104.71 32.4395 104.71 32.1998C104.71 31.939 104.615 31.7136 104.426 31.5231C104.237 31.3326 103.827 31.1125 103.197 30.8629C102.393 30.5443 101.863 30.2349 101.607 29.9352C101.35 29.6358 101.222 29.2699 101.222 28.8369C101.222 28.3159 101.416 27.8778 101.803 27.5238C102.189 27.1682 102.687 26.9916 103.297 26.9916C103.522 26.9916 103.914 27.0357 104.472 27.1237C104.692 27.1552 104.825 27.1711 104.872 27.1711C104.964 27.1711 105.084 27.1111 105.233 26.9916H105.502V28.8816H105.233C105.053 28.4237 104.803 28.0656 104.48 27.8075C104.157 27.55 103.799 27.4206 103.404 27.4206C103.123 27.4206 102.887 27.485 102.698 27.6124C102.507 27.7405 102.413 27.9008 102.413 28.0939C102.413 28.2865 102.493 28.4552 102.652 28.5979C102.81 28.7416 103.166 28.9204 103.719 29.1339C104.575 29.4676 105.146 29.8053 105.433 30.1494C105.719 30.4924 105.862 30.9168 105.862 31.4212C105.862 32.0039 105.643 32.4974 105.206 32.9008C104.768 33.3033 104.272 33.505 103.719 33.505C103.391 33.505 103.066 33.4714 102.743 33.4039C102.416 33.3303 102.185 33.2948 102.052 33.2948C101.817 33.2948 101.635 33.3644 101.507 33.505L101.238 33.505Z" fill="#A3D3F2"/>
<path d="M109.235 23.2502H109.504V28.4518H109.534C109.842 27.9367 110.169 27.5638 110.517 27.3351C110.866 27.1059 111.275 26.9915 111.747 26.9915C112.393 26.9915 112.903 27.1984 113.28 27.6123C113.656 28.0269 113.844 28.5872 113.844 29.2954V31.9047C113.844 32.2425 113.915 32.4901 114.055 32.6464C114.197 32.8028 114.436 32.9171 114.774 32.9899V33.2633H111.14V32.9899C111.494 32.8966 111.735 32.7672 111.866 32.6029C111.996 32.4394 112.062 32.1905 112.062 31.8581V29.4209C112.062 28.4518 111.706 27.9676 110.994 27.9676C110.733 27.9676 110.491 28.0394 110.268 28.1826C110.045 28.3264 109.791 28.5846 109.504 28.9596V31.9355C109.504 32.2529 109.572 32.488 109.709 32.6385C109.847 32.7895 110.088 32.9065 110.433 32.9899V33.2633H106.823V32.9899C107.161 32.9065 107.395 32.7817 107.525 32.6149C107.656 32.4486 107.722 32.1957 107.722 31.8581V24.6876C107.722 24.4013 107.656 24.1863 107.525 24.0426C107.395 23.8994 107.161 23.7838 106.823 23.6957V23.4225L109.235 23.2502Z" fill="#A3D3F2"/>
<path d="M115.68 33.2632V32.99C116.018 32.896 116.252 32.7764 116.383 32.6306C116.513 32.4848 116.579 32.2587 116.579 31.9513V24.6404C116.579 24.3697 116.516 24.1674 116.391 24.0347C116.265 23.9021 116.028 23.7891 115.68 23.6957V23.4224L118.092 23.2504H118.362V30.0135L120.466 28.4664C120.624 28.3475 120.704 28.1931 120.704 28.0059C120.704 27.8554 120.647 27.7346 120.531 27.6432C120.416 27.5525 120.259 27.5067 120.059 27.5067V27.2333H123.332V27.5067C122.937 27.5637 122.618 27.6445 122.375 27.7484C122.132 27.8534 121.827 28.0374 121.458 28.3022L119.903 29.4156L122.702 32.3962C122.896 32.6149 123.065 32.762 123.209 32.8374C123.352 32.9131 123.549 32.9637 123.8 32.99V33.2632H121.09L118.362 30.3807V31.7556C118.362 32.1726 118.41 32.45 118.507 32.588C118.604 32.7259 118.853 32.8598 119.252 32.99V33.2632L115.68 33.2632Z" fill="#A3D3F2"/>
<path d="M128.141 32.2245V29.9358C127.357 30.2741 126.839 30.5665 126.585 30.8108C126.332 31.0559 126.205 31.3706 126.205 31.7555C126.205 32.0839 126.281 32.348 126.431 32.5484C126.583 32.7493 126.782 32.8493 127.027 32.8493C127.36 32.8493 127.731 32.6409 128.141 32.2245ZM126.128 33.5048C125.637 33.5048 125.218 33.3504 124.872 33.0404C124.527 32.7311 124.353 32.3572 124.353 31.9198C124.353 31.4821 124.525 31.1188 124.868 30.8298C125.211 30.5408 125.929 30.251 127.019 29.9595C127.547 29.8189 127.926 29.7039 128.157 29.6151C128.157 29.0587 128.038 28.6548 127.803 28.4051C127.567 28.1556 127.194 28.0301 126.681 28.0301C125.878 28.0301 125.283 28.3656 124.899 29.0371H124.669C124.828 28.3867 125.138 27.8835 125.602 27.5262C126.066 27.1701 126.64 26.9913 127.327 26.9913C128.12 26.9913 128.754 27.1891 129.228 27.5852C129.702 27.9807 129.939 28.5352 129.939 29.2486V32.0918C129.939 32.6279 130.059 32.8959 130.3 32.8959C130.55 32.8959 130.707 32.7087 130.768 32.3335H131.021C130.991 32.7087 130.85 32.9977 130.599 33.2007C130.348 33.4037 130.008 33.5048 129.577 33.5048C129.214 33.5048 128.921 33.4392 128.698 33.3057C128.475 33.1731 128.29 32.9557 128.141 32.6534L128.003 32.7862C127.47 33.2657 126.846 33.5048 126.128 33.5048Z" fill="#A3D3F2"/>
<path d="M134.425 26.9917V28.9132H134.455C135.019 27.6322 135.675 26.9917 136.422 26.9917C136.832 26.9917 137.183 27.1619 137.475 27.5028L137.083 29.327C136.546 28.8062 136.1 28.5453 135.746 28.5453C135.485 28.5453 135.257 28.6084 135.063 28.7332C134.868 28.8579 134.656 29.0819 134.425 29.4052V31.8733C134.425 32.259 134.491 32.5209 134.625 32.6623C134.758 32.8029 135.026 32.9118 135.432 32.9901V33.2634H131.652V32.9901C132.041 32.8962 132.303 32.7741 132.439 32.6228C132.574 32.4718 132.643 32.2221 132.643 31.8733V28.6859C132.643 28.3061 132.557 28.0224 132.385 27.8344C132.214 27.6474 131.939 27.5382 131.559 27.5068V27.2334L134.156 26.9917L134.425 26.9917Z" fill="#A3D3F2"/>
<path d="M139.311 24.289C139.311 24.0026 139.412 23.7575 139.615 23.5553C139.817 23.3516 140.062 23.2505 140.348 23.2505C140.63 23.2505 140.871 23.3503 141.071 23.5506C141.27 23.7516 141.371 23.9974 141.371 24.289C141.371 24.5806 141.27 24.829 141.071 25.0353C140.871 25.2401 140.63 25.3433 140.348 25.3433C140.062 25.3433 139.817 25.2389 139.615 25.0312C139.412 24.8225 139.311 24.5754 139.311 24.289ZM140.963 26.9915H141.232V31.9672C141.232 32.5709 141.552 32.9119 142.192 32.9901V33.2633H138.458V32.9901C138.858 32.9119 139.123 32.7975 139.254 32.6464C139.384 32.4953 139.45 32.2274 139.45 31.8417V28.6241C139.45 28.2542 139.38 27.9967 139.242 27.8509C139.104 27.7051 138.817 27.59 138.382 27.5066V27.2334L140.963 26.9915Z" fill="#A3D3F2"/>
<path d="M146.64 32.2245V29.9358C145.856 30.2741 145.338 30.5665 145.084 30.8108C144.831 31.0559 144.704 31.3706 144.704 31.7555C144.704 32.0839 144.78 32.348 144.93 32.5484C145.082 32.7493 145.281 32.8493 145.526 32.8493C145.859 32.8493 146.23 32.6409 146.64 32.2245ZM144.628 33.5048C144.136 33.5048 143.717 33.3504 143.371 33.0404C143.026 32.7311 142.853 32.3572 142.853 31.9198C142.853 31.4821 143.024 31.1188 143.368 30.8298C143.711 30.5408 144.428 30.251 145.519 29.9595C146.046 29.8189 146.425 29.7039 146.655 29.6151C146.655 29.0587 146.537 28.6548 146.302 28.4051C146.066 28.1556 145.692 28.0301 145.181 28.0301C144.376 28.0301 143.782 28.3656 143.398 29.0371H143.167C143.326 28.3867 143.638 27.8835 144.101 27.5262C144.565 27.1701 145.139 26.9913 145.825 26.9913C146.62 26.9913 147.253 27.1891 147.727 27.5852C148.2 27.9807 148.438 28.5352 148.438 29.2486V32.0918C148.438 32.6279 148.558 32.8959 148.799 32.8959C149.05 32.8959 149.206 32.7087 149.267 32.3335H149.521C149.49 32.7087 149.349 32.9977 149.098 33.2007C148.847 33.4037 148.507 33.5048 148.076 33.5048C147.713 33.5048 147.42 33.4392 147.197 33.3057C146.974 33.1731 146.788 32.9557 146.64 32.6534L146.502 32.7862C145.969 33.2657 145.344 33.5048 144.628 33.5048Z" fill="#A3D3F2"/>
<path d="M162.566 23.9056V26.5302H162.281C162.01 25.8168 161.589 25.2492 161.018 24.8274C160.446 24.4064 159.816 24.1948 159.124 24.1948C158.191 24.1948 157.471 24.5987 156.962 25.4054C156.452 26.2129 156.197 27.3507 156.197 28.8189C156.197 30.1727 156.451 31.2035 156.957 31.9124C157.465 32.6206 158.197 32.9746 159.155 32.9746C160.076 32.9746 160.538 32.6434 160.538 31.982V30.5919C160.538 29.9516 160.223 29.5685 159.592 29.4437V29.1704H163.465V29.4437C163.127 29.5376 162.892 29.6873 162.762 29.8931C162.631 30.0986 162.566 30.4173 162.566 30.8495V32.8334C161.644 33.2807 160.453 33.5048 158.993 33.5048C158.02 33.5048 157.157 33.2999 156.404 32.8885C155.651 32.4774 155.061 31.8921 154.634 31.1345C154.206 30.3772 153.992 29.5508 153.992 28.6548C153.992 27.2233 154.466 26.0328 155.414 25.0855C156.361 24.1382 157.554 23.6639 158.993 23.6639C159.562 23.6639 160.181 23.7861 160.853 24.0306C161.206 24.1614 161.462 24.2263 161.621 24.2263C161.856 24.2263 162.077 24.1193 162.281 23.9056L162.566 23.9056Z" fill="#A3D3F2"/>
<path d="M166.96 26.9917V28.9132H166.99C167.554 27.6322 168.209 26.9917 168.957 26.9917C169.367 26.9917 169.718 27.1619 170.009 27.5028L169.618 29.327C169.081 28.8062 168.635 28.5453 168.281 28.5453C168.02 28.5453 167.792 28.6084 167.598 28.7332C167.403 28.8579 167.191 29.0819 166.96 29.4052V31.8733C166.96 32.259 167.026 32.5209 167.159 32.6623C167.293 32.8029 167.561 32.9118 167.967 32.9901V33.2634H164.187V32.9901C164.576 32.8962 164.838 32.7741 164.974 32.6228C165.109 32.4718 165.178 32.2221 165.178 31.8733V28.6859C165.178 28.3061 165.092 28.0224 164.92 27.8344C164.749 27.6474 164.473 27.5382 164.094 27.5068V27.2334L166.691 26.9917L166.96 26.9917Z" fill="#A3D3F2"/>
<path d="M176.202 30.2441C176.202 29.3481 176.052 28.6531 175.753 28.1596C175.453 27.6669 175.026 27.4206 174.473 27.4206C173.905 27.4206 173.472 27.6736 173.175 28.1794C172.878 28.6852 172.729 29.4099 172.729 30.3539C172.729 31.1828 172.887 31.8443 173.202 32.3371C173.517 32.8298 173.94 33.0761 174.473 33.0761C175.016 33.0761 175.44 32.8272 175.744 32.3292C176.049 31.8305 176.202 31.1356 176.202 30.2441ZM178.169 30.2403C178.169 31.167 177.829 31.9429 177.15 32.5677C176.472 33.1923 175.579 33.5051 174.473 33.5051C173.367 33.5051 172.472 33.1943 171.788 32.5722C171.104 31.95 170.762 31.1724 170.762 30.2403C170.762 29.6621 170.92 29.1129 171.235 28.5918C171.55 28.0716 171.983 27.6749 172.534 27.4015C173.084 27.1284 173.731 26.9917 174.473 26.9917C175.585 26.9917 176.478 27.3036 177.155 27.9283C177.831 28.5531 178.169 29.3244 178.169 30.2403Z" fill="#A3D3F2"/>
<path d="M184.399 32.029H184.368C183.733 33.0131 182.947 33.5051 182.01 33.5051C181.395 33.5051 180.914 33.3429 180.565 33.0171C180.217 32.6919 180.043 32.2398 180.043 31.6618V28.5453C180.043 28.2124 179.976 27.9712 179.843 27.8234C179.71 27.6749 179.467 27.5692 179.114 27.5068V27.2334L181.557 26.9917H181.818V31.443C181.818 31.7766 181.915 32.0362 182.11 32.2208C182.304 32.4053 182.576 32.498 182.924 32.498C183.226 32.498 183.484 32.4185 183.696 32.2603C183.909 32.1007 184.143 31.8161 184.399 31.4042V28.3976C184.399 27.9127 184.089 27.6164 183.469 27.5068V27.2334L185.912 26.9917H186.181V31.7951C186.181 32.1958 186.24 32.4705 186.358 32.6189C186.476 32.7674 186.732 32.891 187.126 32.9901V33.2634L184.399 33.5051V32.029Z" fill="#A3D3F2"/>
<path d="M190.807 28.5923V32.1928C191.267 32.6618 191.754 32.8964 192.266 32.8964C192.794 32.8964 193.22 32.6645 193.545 32.2008C193.871 31.7377 194.033 31.1254 194.033 30.3652C194.033 29.5736 193.878 28.9476 193.568 28.487C193.258 28.0265 192.839 27.796 192.312 27.796C191.738 27.796 191.237 28.0608 190.807 28.5923ZM190.807 26.9912V28.1632C191.472 27.3815 192.269 26.9912 193.195 26.9912C194 26.9912 194.668 27.2942 195.201 27.9011C195.733 28.5081 196 29.2669 196 30.1781C196 31.147 195.706 31.9432 195.12 32.568C194.534 33.1927 193.787 33.5054 192.881 33.5054C192.497 33.5054 192.162 33.4443 191.878 33.3214C191.594 33.1998 191.237 32.9659 190.807 32.6231V36.4346C190.807 36.861 190.878 37.1565 191.022 37.3208C191.165 37.485 191.459 37.6131 191.905 37.7077V37.9652H187.957V37.6919C188.386 37.6394 188.672 37.5172 188.813 37.3246C188.953 37.1323 189.024 36.7492 189.024 36.1764V28.8031C189.024 28.34 188.953 28.0305 188.813 27.8734C188.672 27.7178 188.386 27.5949 187.957 27.507V27.2336L190.537 26.9912L190.807 26.9912Z" fill="#A3D3F2"/>
<path d="M77.2726 37.3346V38.5802H77.1368C77.0464 38.3049 76.8913 38.0723 76.6709 37.8844C76.4501 37.6971 76.2226 37.6026 75.9881 37.6026C75.776 37.6026 75.5965 37.6643 75.4478 37.7878C75.3 37.912 75.2256 38.0625 75.2256 38.2418C75.2256 38.3286 75.245 38.4146 75.2837 38.4993C75.3225 38.5846 75.3788 38.6642 75.4523 38.7384C75.526 38.8115 75.7632 38.9757 76.1645 39.2298C76.5734 39.4833 76.837 39.6608 76.9559 39.7606C77.0742 39.8604 77.188 39.988 77.2964 40.1429C77.4612 40.3828 77.5439 40.6442 77.5439 40.9287C77.5439 41.349 77.3986 41.6834 77.1077 41.9304C76.8171 42.178 76.4649 42.3017 76.0513 42.3017C75.8291 42.3017 75.5641 42.2609 75.2566 42.1793C75.0937 42.138 74.98 42.1164 74.9153 42.1164C74.8069 42.1164 74.728 42.1676 74.6789 42.27H74.5432V40.8472H74.6789C74.7487 41.2151 74.8936 41.5047 75.1132 41.7162C75.3328 41.9277 75.6029 42.0336 75.9235 42.0336C76.1715 42.0336 76.3764 41.9706 76.5379 41.8444C76.6995 41.7183 76.7803 41.5579 76.7803 41.3635C76.7803 41.2058 76.7284 41.0568 76.6252 40.9162C76.5218 40.7756 76.2452 40.5693 75.7942 40.2967C75.3806 40.0451 75.106 39.8513 74.9723 39.7146C74.8386 39.5774 74.7372 39.4243 74.6686 39.2548C74.6007 39.0846 74.5664 38.906 74.5664 38.7161C74.5664 38.3107 74.7022 37.9791 74.9749 37.7215C75.2468 37.4634 75.5978 37.3346 76.0262 37.3346C76.1573 37.3346 76.3163 37.3569 76.5024 37.4022C76.6878 37.4437 76.8196 37.4648 76.8971 37.4648C76.972 37.4648 77.0516 37.4213 77.1369 37.3346L77.2726 37.3346Z" fill="#A3D3F2"/>
<path d="M79.3239 37.1259H79.4596V39.7509C79.6147 39.4908 79.7955 39.3029 79.9713 39.1875C80.147 39.0718 80.3538 39.0139 80.5915 39.0139C80.9172 39.0139 81.175 39.1184 81.365 39.3273C81.5549 39.5362 81.65 39.8193 81.65 40.1774V41.4932C81.65 41.664 81.6855 41.7894 81.7565 41.8683C81.8276 41.9465 81.9485 42.0049 82.119 42.041V42.1791H80.2853V42.041C80.4637 41.9937 80.5858 41.9295 80.6516 41.8467C80.7175 41.764 80.7504 41.6377 80.7504 41.4695V40.2398C80.7504 39.7509 80.5708 39.5066 80.2117 39.5066C80.0797 39.5066 79.9578 39.5428 79.8453 39.6151C79.7329 39.6873 79.6043 39.818 79.4596 40.0072V41.509C79.4596 41.6694 79.4938 41.7882 79.5636 41.8638C79.6327 41.9399 79.7541 41.999 79.9287 42.041V42.1791H78.1064V42.041C78.2771 41.999 78.3953 41.9361 78.4612 41.8518C78.5271 41.7678 78.5601 41.6403 78.5601 41.4695V37.8512C78.5601 37.7067 78.5271 37.5983 78.4612 37.5253C78.3953 37.4538 78.2771 37.3953 78.1064 37.3507V37.2127L79.3239 37.1259Z" fill="#A3D3F2"/>
<path d="M84.3951 41.6552V40.4996C83.9997 40.671 83.7379 40.8182 83.6101 40.9418C83.4821 41.0653 83.4182 41.2241 83.4182 41.4187C83.4182 41.5842 83.4562 41.7175 83.5324 41.8187C83.6088 41.9198 83.7088 41.9697 83.833 41.9697C84.0009 41.9697 84.1883 41.8654 84.3951 41.6552ZM83.3793 42.3008C83.1313 42.3008 82.9199 42.2233 82.7454 42.0671C82.5711 41.9107 82.4839 41.7223 82.4839 41.5014C82.4839 41.2807 82.5703 41.0967 82.7435 40.9515C82.9166 40.8057 83.2786 40.6586 83.8291 40.512C84.0953 40.4405 84.2865 40.3826 84.4028 40.3379C84.4028 40.0569 84.3434 39.8539 84.2246 39.7271C84.1056 39.6009 83.9169 39.5379 83.6584 39.5379C83.2528 39.5379 82.9529 39.7074 82.7591 40.047H82.6428C82.7229 39.7185 82.8798 39.4636 83.1137 39.2843C83.3477 39.1036 83.6378 39.0135 83.9841 39.0135C84.3847 39.0135 84.7047 39.1141 84.9437 39.3139C85.1827 39.5129 85.3023 39.7927 85.3023 40.1534V41.5874C85.3023 41.8587 85.3631 41.9941 85.4845 41.9941C85.6111 41.9941 85.69 41.8995 85.721 41.7103H85.8488C85.8335 41.8995 85.7624 42.0453 85.6356 42.1479C85.5091 42.2503 85.3371 42.3008 85.12 42.3008C84.9365 42.3008 84.7885 42.2681 84.6761 42.201C84.5638 42.1339 84.4701 42.0243 84.3951 41.872L84.3253 41.939C84.0565 42.1807 83.7413 42.3008 83.3793 42.3008Z" fill="#A3D3F2"/>
<path d="M87.4856 39.8223V41.6393C87.7181 41.8758 87.9637 41.9941 88.2222 41.9941C88.4883 41.9941 88.7035 41.8771 88.8676 41.6427C89.0317 41.4094 89.1138 41.1 89.1138 40.7163C89.1138 40.3176 89.0356 40.001 88.8794 39.769C88.723 39.5358 88.5116 39.4202 88.2455 39.4202C87.9559 39.4202 87.7027 39.5543 87.4856 39.8223ZM87.4856 39.0143V39.6055C87.8216 39.2107 88.2235 39.0143 88.6912 39.0143C89.097 39.0143 89.4343 39.1673 89.7032 39.4734C89.9719 39.7796 90.1063 40.1626 90.1063 40.6224C90.1063 41.1112 89.9583 41.5132 89.6623 41.8285C89.3665 42.1438 88.9898 42.3007 88.5323 42.3007C88.3385 42.3007 88.1698 42.2706 88.0264 42.209C87.883 42.1471 87.7027 42.0297 87.4856 41.8561V43.7797C87.4856 43.9957 87.5218 44.1441 87.5941 44.227C87.6665 44.3097 87.815 44.3754 88.0399 44.4222V44.5521H86.0466V44.4141C86.2644 44.3879 86.4084 44.3262 86.4795 44.229C86.5507 44.1324 86.5862 43.9393 86.5862 43.6495V39.928C86.5862 39.6949 86.5507 39.5379 86.4795 39.4589C86.4084 39.3802 86.2644 39.3183 86.0466 39.2736V39.1359L87.3498 39.0143L87.4856 39.0143Z" fill="#A3D3F2"/>
<path d="M91.0795 37.65C91.0795 37.5056 91.1304 37.3821 91.2326 37.2795C91.3346 37.1764 91.458 37.1259 91.6034 37.1259C91.7449 37.1259 91.8665 37.1764 91.9677 37.2776C92.0679 37.3787 92.1183 37.5022 92.1183 37.65C92.1183 37.7972 92.0679 37.9227 91.9677 38.0264C91.8665 38.1303 91.7449 38.1821 91.6034 38.1821C91.458 38.1821 91.3346 38.1291 91.2326 38.0245C91.1304 37.9194 91.0795 37.7946 91.0795 37.65ZM91.9135 39.0139H92.0485V41.5247C92.0485 41.8295 92.2101 42.0016 92.5331 42.0416V42.1796H90.649V42.0416C90.8506 42.0016 90.9844 41.9437 91.0503 41.8683C91.1162 41.7921 91.1492 41.6567 91.1492 41.4623V39.8375C91.1492 39.651 91.1143 39.5217 91.0444 39.4475C90.9746 39.3739 90.83 39.316 90.6104 39.2741V39.1361L91.9135 39.0139Z" fill="#A3D3F2"/>
<path d="M94.3207 39.014V39.7591C94.6075 39.2624 95.0016 39.014 95.4722 39.014C95.7667 39.014 96.0156 39.1145 96.217 39.3155C96.4187 39.5166 96.5189 39.7853 96.5189 40.1224V41.4538C96.5189 41.6458 96.5532 41.7804 96.6204 41.8579C96.6874 41.9354 96.8103 41.9965 96.9879 42.0411V42.1791H95.1465V42.0411C95.3221 42.0019 95.4451 41.9421 95.5148 41.8618C95.5851 41.7817 95.6194 41.6588 95.6194 41.4933V40.232C95.6194 40.0034 95.5716 39.8254 95.4739 39.698C95.3771 39.5704 95.2409 39.5067 95.065 39.5067C94.7574 39.5067 94.5093 39.6842 94.3207 40.0389V41.4624C94.3207 41.643 94.3518 41.7719 94.4137 41.848C94.4758 41.925 94.5921 41.9886 94.7626 42.0411V42.1792H92.9521V42.0411C93.1279 41.9965 93.2501 41.9361 93.3186 41.8599C93.3871 41.7844 93.4213 41.6695 93.4213 41.5177V39.8142C93.4213 39.6408 93.3817 39.5146 93.303 39.4358C93.2242 39.3563 93.084 39.303 92.8823 39.2742V39.1362L94.1849 39.014H94.3207Z" fill="#A3D3F2"/>
<path d="M98.384 40.2342C98.384 40.5317 98.4461 40.7688 98.5701 40.9468C98.6941 41.1242 98.8595 41.2136 99.0662 41.2136C99.2809 41.2136 99.4476 41.1261 99.5652 40.9527C99.682 40.7787 99.7416 40.531 99.7416 40.2105C99.7416 39.9075 99.6828 39.6705 99.567 39.4997C99.4502 39.3282 99.2937 39.2421 99.0974 39.2421C98.6217 39.2421 98.384 39.5725 98.384 40.2342ZM98.0119 43.3499C98.0119 43.5812 98.185 43.767 98.5313 43.9076C98.8776 44.049 99.2782 44.1185 99.7331 44.1185C99.9561 44.1185 100.138 44.0711 100.282 43.9765C100.426 43.8819 100.497 43.7624 100.497 43.6179C100.497 43.3894 100.335 43.2093 100.009 43.0778C99.6828 42.9466 99.2925 42.8809 98.8375 42.8809C98.587 42.8809 98.3866 42.9235 98.2367 43.009C98.0868 43.0944 98.0119 43.208 98.0119 43.3499ZM97.4884 40.2676C97.4884 39.9075 97.6312 39.6086 97.9168 39.3709C98.2025 39.1325 98.5649 39.0143 99.0044 39.0143C99.0844 39.0143 99.1994 39.0174 99.3493 39.0254L99.4502 39.0293H101.013V39.5818L100.249 39.5227L100.233 39.5377C100.505 39.7697 100.641 40.0286 100.641 40.315C100.641 40.6323 100.506 40.8982 100.236 41.1111C99.965 41.3239 99.6181 41.4304 99.1943 41.4304C98.8454 41.4304 98.598 41.4546 98.4518 41.5052C98.3058 41.5551 98.2327 41.6367 98.2327 41.749C98.2327 41.833 98.2858 41.8982 98.3917 41.9454C98.4978 41.9933 98.7368 42.0347 99.1097 42.0715C99.6491 42.1267 100.039 42.2028 100.277 42.3007C100.514 42.3974 100.695 42.532 100.819 42.7049C100.943 42.8762 101.005 43.0562 101.005 43.2428C101.005 43.6423 100.822 43.9726 100.457 44.2348C100.091 44.4963 99.6071 44.627 99.0044 44.627C98.4978 44.627 98.0836 44.5396 97.7619 44.3629C97.44 44.1875 97.2791 43.9596 97.2791 43.681C97.2791 43.455 97.3953 43.2587 97.6279 43.0898C97.8606 42.9216 98.1708 42.8177 98.5584 42.7785V42.7587C98.1966 42.7218 97.9318 42.6477 97.7637 42.536C97.5957 42.4242 97.5116 42.2568 97.5116 42.0334C97.5116 41.8652 97.5821 41.7314 97.723 41.6313C97.8639 41.5315 98.1192 41.4395 98.4886 41.3555C98.1425 41.2477 97.8891 41.0921 97.7289 40.92C97.5686 40.7477 97.4884 40.5304 97.4884 40.2676Z" fill="#A3D3F2"/>
<path d="M109.302 37.4568V37.5948C109.114 37.6158 108.95 37.711 108.812 37.8804C108.674 38.0501 108.546 38.3121 108.43 38.6669L107.211 42.301H107.071L105.705 38.5803L104.478 42.301H104.34L102.893 38.3516C102.78 38.0442 102.679 37.8451 102.591 37.7544C102.503 37.6631 102.358 37.6099 102.157 37.5948V37.4568H104.161V37.5948C103.957 37.6343 103.855 37.7453 103.855 37.9293C103.854 38.0133 103.875 38.1198 103.919 38.2484L104.758 40.5234L105.552 38.1294C105.469 37.9371 105.386 37.8076 105.304 37.7413C105.222 37.6748 105.085 37.6263 104.894 37.5948V37.4568H106.872V37.5948C106.675 37.6499 106.577 37.7617 106.577 37.9298C106.577 37.9922 106.591 38.0613 106.62 38.1348L107.5 40.5234L108.144 38.5808C108.225 38.3338 108.265 38.1473 108.263 38.0205C108.263 37.7892 108.128 37.6473 107.856 37.5948V37.4568L109.302 37.4568Z" fill="#A3D3F2"/>
<path d="M110.849 37.1259H110.985V39.7509C111.14 39.4908 111.321 39.3029 111.497 39.1875C111.673 39.0718 111.879 39.0139 112.117 39.0139C112.443 39.0139 112.701 39.1184 112.891 39.3273C113.081 39.5362 113.176 39.8193 113.176 40.1774V41.4932C113.176 41.664 113.211 41.7894 113.282 41.8683C113.353 41.9465 113.474 42.0049 113.645 42.041V42.1791H111.811V42.041C111.989 41.9937 112.111 41.9295 112.177 41.8467C112.243 41.764 112.276 41.6377 112.276 41.4695V40.2398C112.276 39.7509 112.096 39.5066 111.737 39.5066C111.605 39.5066 111.483 39.5428 111.371 39.6151C111.259 39.6873 111.13 39.818 110.985 40.0072V41.509C110.985 41.6694 111.019 41.7882 111.089 41.8638C111.158 41.9399 111.28 41.999 111.454 42.041V42.1791H109.632V42.041C109.803 41.999 109.921 41.9361 109.987 41.8518C110.053 41.7678 110.086 41.6403 110.086 41.4695V37.8512C110.086 37.7067 110.053 37.5983 109.987 37.5253C109.921 37.4538 109.803 37.3953 109.632 37.3507V37.2127L110.849 37.1259Z" fill="#A3D3F2"/>
<path d="M115.921 41.6552V40.4996C115.525 40.671 115.264 40.8182 115.136 40.9418C115.008 41.0653 114.944 41.2241 114.944 41.4187C114.944 41.5842 114.982 41.7175 115.058 41.8187C115.134 41.9198 115.235 41.9697 115.359 41.9697C115.527 41.9697 115.714 41.8654 115.921 41.6552ZM114.905 42.3008C114.657 42.3008 114.446 42.2233 114.271 42.0671C114.097 41.9107 114.01 41.7223 114.01 41.5014C114.01 41.2807 114.096 41.0967 114.269 40.9515C114.442 40.8057 114.804 40.6586 115.355 40.512C115.621 40.4405 115.812 40.3826 115.928 40.3379C115.928 40.0569 115.869 39.8539 115.75 39.7271C115.631 39.6009 115.443 39.5379 115.184 39.5379C114.778 39.5379 114.479 39.7074 114.285 40.047H114.168C114.249 39.7185 114.406 39.4636 114.639 39.2843C114.873 39.1036 115.163 39.0135 115.51 39.0135C115.91 39.0135 116.23 39.1141 116.469 39.3139C116.708 39.5129 116.828 39.7927 116.828 40.1534V41.5874C116.828 41.8587 116.889 41.9941 117.01 41.9941C117.137 41.9941 117.216 41.8995 117.247 41.7103H117.374C117.359 41.8995 117.288 42.0453 117.161 42.1479C117.035 42.2503 116.863 42.3008 116.646 42.3008C116.462 42.3008 116.314 42.2681 116.202 42.201C116.089 42.1339 115.996 42.0243 115.921 41.872L115.851 41.939C115.582 42.1807 115.267 42.3008 114.905 42.3008Z" fill="#A3D3F2"/>
<path d="M120.008 41.6707L120.101 41.7619C119.891 42.1219 119.571 42.3012 119.139 42.3012C118.819 42.3012 118.569 42.2172 118.391 42.0491C118.213 41.8808 118.124 41.6417 118.124 41.3316V39.3767H117.585V39.2229C117.985 38.9734 118.414 38.5516 118.872 37.9578H119.023V39.1361H120.008V39.3767H119.023V41.1312C119.023 41.4072 119.066 41.6055 119.153 41.7277C119.239 41.85 119.378 41.9111 119.57 41.9111C119.727 41.9111 119.873 41.8309 120.008 41.6707Z" fill="#A3D3F2"/>
<path d="M120.705 39.5895V39.4516C121.209 39.2702 121.461 38.9653 121.461 38.5365C121.461 38.4661 121.447 38.3978 121.419 38.332C121.39 38.2665 121.357 38.2335 121.318 38.2335C121.311 38.2335 121.293 38.2356 121.267 38.2415C121.231 38.2467 121.204 38.2493 121.182 38.2493C121.056 38.2493 120.947 38.1948 120.857 38.0856C120.766 37.9767 120.721 37.8473 120.721 37.6975C120.721 37.5287 120.776 37.3915 120.886 37.2849C120.995 37.1791 121.137 37.1259 121.311 37.1259C121.527 37.1259 121.712 37.2246 121.865 37.4235C122.017 37.622 122.093 37.8618 122.093 38.1428C122.093 38.4898 121.951 38.8104 121.667 39.1067C121.382 39.4022 121.062 39.5631 120.705 39.5895Z" fill="#A3D3F2"/>
<path d="M121.904 42.301V41.1264H122.039C122.338 41.7656 122.7 42.0849 123.124 42.0849C123.269 42.0849 123.394 42.0409 123.499 41.9541C123.604 41.8675 123.656 41.7636 123.656 41.6422C123.656 41.5108 123.608 41.3972 123.513 41.3012C123.417 41.2046 123.21 41.0936 122.892 40.9674C122.487 40.8072 122.219 40.6508 122.09 40.4998C121.961 40.3485 121.896 40.1633 121.896 39.9452C121.896 39.6825 121.994 39.4611 122.189 39.2817C122.384 39.1031 122.635 39.0138 122.943 39.0138C123.056 39.0138 123.254 39.0361 123.536 39.0808C123.647 39.0964 123.714 39.1045 123.737 39.1045C123.784 39.1045 123.845 39.0741 123.92 39.0138H124.055V39.9675H123.92C123.829 39.7363 123.703 39.5556 123.54 39.4257C123.377 39.2955 123.196 39.2305 122.997 39.2305C122.855 39.2305 122.736 39.2627 122.64 39.3277C122.545 39.3914 122.497 39.4723 122.497 39.5702C122.497 39.6674 122.537 39.7521 122.617 39.8244C122.697 39.8974 122.877 39.9873 123.156 40.0951C123.588 40.2633 123.876 40.4341 124.02 40.6074C124.165 40.7809 124.238 40.9951 124.238 41.2493C124.238 41.5435 124.127 41.7925 123.906 41.9962C123.685 42.1999 123.435 42.301 123.156 42.301C122.991 42.301 122.826 42.2846 122.664 42.2504C122.498 42.213 122.382 42.1953 122.315 42.1953C122.196 42.1953 122.104 42.2306 122.039 42.301L121.904 42.301Z" fill="#A3D3F2"/>
<path d="M129.906 37.595V37.457H131.473V37.595C131.023 37.6213 130.798 37.8788 130.798 38.3676V42.2342H130.646L127.305 38.4064V41.2935C127.305 41.5451 127.349 41.7217 127.441 41.8231C127.531 41.9242 127.713 41.9965 127.987 42.0417V42.1797H126.386V42.0417C126.603 42.0076 126.758 41.932 126.853 41.8151C126.947 41.6975 126.995 41.5162 126.995 41.2693V38.0641C126.813 37.875 126.689 37.7541 126.621 37.7013C126.552 37.6488 126.471 37.6135 126.378 37.5951V37.457H127.773L130.488 40.6221V38.4976C130.488 38.1842 130.447 37.9688 130.366 37.8492C130.286 37.7296 130.132 37.6449 129.906 37.595Z" fill="#A3D3F2"/>
<path d="M132.838 40.2002H134.144C134.126 39.9138 134.055 39.6806 133.93 39.5013C133.806 39.3207 133.653 39.2305 133.472 39.2305C133.29 39.2305 133.142 39.3186 133.028 39.4954C132.914 39.6707 132.851 39.9065 132.838 40.2002ZM134.974 41.2415H135.11C134.975 41.57 134.765 41.8289 134.478 42.018C134.191 42.2072 133.868 42.3011 133.509 42.3011C133.041 42.3011 132.651 42.1475 132.34 41.838C132.028 41.5292 131.873 41.143 131.873 40.6778C131.873 40.2048 132.032 39.8088 132.351 39.4907C132.67 39.1734 133.067 39.0138 133.539 39.0138C133.966 39.0138 134.321 39.138 134.604 39.387C134.887 39.6352 135.055 39.9678 135.11 40.3855H132.842C132.839 40.4281 132.838 40.4697 132.838 40.5123C132.838 40.9248 132.94 41.2592 133.143 41.5175C133.348 41.7743 133.6 41.9037 133.902 41.9037C134.333 41.9037 134.69 41.683 134.974 41.2415Z" fill="#A3D3F2"/>
<path d="M138.456 39.8768L137.903 40.4608L138.844 41.6393C138.962 41.7864 139.068 41.8883 139.161 41.9442C139.254 42.0014 139.373 42.0336 139.518 42.0414V42.1794H137.459V42.0414C137.661 42.031 137.762 41.9579 137.762 41.8239C137.763 41.7516 137.729 41.6728 137.663 41.5868L137.171 40.9527L136.727 41.387C136.602 41.5052 136.54 41.6261 136.54 41.7498C136.54 41.9021 136.631 41.9987 136.812 42.0414V42.1794H135.365V42.0414C135.547 42.0256 135.711 41.9712 135.861 41.8797C136.011 41.7877 136.201 41.6235 136.431 41.3878L137.017 40.7768L136.365 39.9602C136.164 39.7047 135.999 39.5293 135.87 39.4314C135.74 39.3349 135.597 39.2822 135.439 39.2736V39.1359H137.451V39.2736C137.302 39.2736 137.227 39.3474 137.227 39.495C137.226 39.574 137.252 39.645 137.303 39.7079L137.757 40.2775L138.138 39.8781C138.249 39.7645 138.304 39.6507 138.304 39.5379C138.304 39.409 138.228 39.321 138.076 39.2736V39.1359H139.401V39.2736C139.223 39.3112 139.066 39.3729 138.929 39.461C138.791 39.5496 138.634 39.6884 138.456 39.8768Z" fill="#A3D3F2"/>
<path d="M142.259 41.6707L142.352 41.7619C142.143 42.1219 141.822 42.3012 141.391 42.3012C141.07 42.3012 140.82 42.2172 140.643 42.0491C140.464 41.8808 140.375 41.6417 140.375 41.3316V39.3767H139.836V39.2229C140.237 38.9734 140.666 38.5516 141.123 37.9578H141.275V39.1361H142.259V39.3767H141.275V41.1312C141.275 41.4072 141.317 41.6055 141.404 41.7277C141.491 41.85 141.63 41.9111 141.821 41.9111C141.979 41.9111 142.125 41.8309 142.259 41.6707Z" fill="#A3D3F2"/>
<path d="M33.3816 2.59509C16.3816 2.59509 2.5517 16.6559 2.5517 33.9388C2.5517 51.2214 16.3817 65.2835 33.3816 65.2835C50.3807 65.2835 64.2113 51.2213 64.2113 33.9388C64.2113 16.6558 50.3807 2.59509 33.3816 2.59509ZM33.3816 67.8779C14.975 67.8779 0 52.6536 0 33.9388C0 15.2251 14.975 0 33.3816 0C51.7887 0 66.7636 15.225 66.7636 33.9388C66.7636 52.6535 51.7887 67.8779 33.3816 67.8779Z" fill="#A3D3F2"/>
<path d="M33.2589 18.4042C32.8258 18.3483 32.3813 18.3121 31.9181 18.3121C30.2684 18.3121 28.8716 18.6531 27.7422 19.3166V29.5799C28.953 30.6987 30.808 32.0321 33.2589 33.5562L33.2589 18.4042Z" fill="#A3D3F2"/>
<path d="M37.9624 47.7056C36.1235 47.7056 34.8797 47.4185 34.2314 46.843C33.5827 46.2682 33.2591 45.2013 33.2591 43.6424V42.9191C32.3047 42.253 31.2361 41.5488 30.0251 40.7966C29.1917 40.2737 28.4318 39.781 27.7424 39.3158V41.4785C27.7424 44.0227 27.3825 45.8332 26.6632 46.9132C25.9441 47.9926 24.7359 48.5326 23.0386 48.5326V49.755H39.2358C39.0736 49.0607 38.7945 48.3762 38.3926 47.7056L37.9624 47.7056Z" fill="#A3D3F2"/>
<path d="M54.4065 40.5503C53.5103 43.5231 52.5553 45.4582 51.5423 46.3576C50.5285 47.2555 48.7484 47.7056 46.202 47.7056H45.2379C45.2463 47.8995 45.2598 48.0919 45.2598 48.2891C45.2598 48.7883 45.2276 49.2751 45.1765 49.7553H53.0982L55.6446 40.5503L54.4065 40.5503Z" fill="#A3D3F2"/>
<path d="M26.734 10.1521C27.4061 11.0513 27.7421 12.641 27.7421 14.9199V16.0138C29.0376 15.6006 30.4501 15.3805 31.9884 15.3805C32.4015 15.3805 32.8279 15.4067 33.2588 15.4435C33.2601 13.0761 33.6188 11.3772 34.3373 10.3485C35.0558 9.31761 36.2408 8.80201 37.8916 8.80201V7.57947H23.0383V8.80201C24.8299 8.80201 26.0622 9.2521 26.734 10.1521Z" fill="#A3D3F2"/>
<path d="M41.1834 16.4693H42.3508V26.3566H41.1129C40.8299 23.6244 39.8576 21.4913 38.195 19.9569C36.5331 18.4236 34.4403 17.6557 31.9184 17.6557C29.6782 17.6557 27.8743 18.2318 26.5076 19.382C25.1398 20.5329 24.4562 22.0669 24.4562 23.9831C24.4562 25.7581 25.0222 27.3761 26.1535 28.8372C27.2856 30.3008 29.737 32.1808 33.5099 34.4828C37.8945 37.1433 40.8417 39.4682 42.3509 41.4573C43.859 43.4478 44.6138 45.7241 44.6138 48.2888C44.6138 51.597 43.4597 54.4251 41.153 56.7743C38.8464 59.1242 36.0686 60.2981 32.8204 60.2981C30.9376 60.2981 28.5359 59.7706 25.6173 58.7168C24.4167 58.2845 23.6518 58.0691 23.3221 58.0691C22.6391 58.0691 22.1094 58.6078 21.7334 59.6864H20.4952V48.2888H21.7334C21.7567 51.4301 22.7625 53.9468 24.7507 55.8395C26.7389 57.7328 29.0632 58.6801 31.7219 58.6801C34.2394 58.6801 36.2572 57.9961 37.7756 56.6291C39.2927 55.2621 40.052 53.4384 40.052 51.1596C40.052 49.4561 39.4279 47.8256 38.1808 46.266C36.9331 44.7059 34.3266 42.697 30.3612 40.2362C27.1272 38.2056 24.9693 36.6032 23.8857 35.4275C22.8034 34.2529 22.0021 32.9641 21.4845 31.5608C20.9664 30.1582 20.7079 28.6165 20.7079 26.938C20.7079 23.7006 21.7508 21.0742 23.8372 19.0595C25.9242 17.0452 28.6405 16.0382 31.9888 16.0382C33.8277 16.0382 35.8314 16.4095 38.0011 17.1523C39.0143 17.4888 39.7212 17.6557 40.1224 17.6557C40.4526 17.6557 40.6761 17.5839 40.7945 17.4402C40.912 17.2963 41.0418 16.973 41.1834 16.4693Z" fill="#A3D3F2"/>
</svg>


