<svg width="250" height="85" viewBox="0 0 250 85" fill="none" xmlns="http://www.w3.org/2000/svg">
<g clip-path="url(#clip0_90_25)">
<path d="M101.979 29.6333V32.7239H101.636C101.408 32.0396 101.015 31.4645 100.458 30.9974C99.9008 30.5317 99.3247 30.2988 98.7322 30.2988C98.1973 30.2988 97.7424 30.452 97.3674 30.758C96.9932 31.0649 96.8053 31.4391 96.8053 31.8824C96.8053 32.0981 96.8547 32.3119 96.952 32.5242C97.0509 32.7357 97.1928 32.9329 97.3789 33.1148C97.5651 33.2983 98.165 33.7046 99.1789 34.3348C100.212 34.9649 100.879 35.405 101.178 35.6519C101.478 35.9002 101.765 36.2169 102.04 36.6019C102.457 37.1958 102.665 37.845 102.665 38.5509C102.665 39.5939 102.298 40.4232 101.563 41.0369C100.828 41.6505 99.9379 41.9567 98.8928 41.9567C98.3309 41.9567 97.6616 41.8554 96.8836 41.6537C96.4722 41.5493 96.1846 41.4975 96.0216 41.4975C95.7471 41.4975 95.5475 41.6241 95.424 41.8792H95.0811V38.3485H95.424C95.6004 39.2607 95.9662 39.9797 96.5211 40.5045C97.0764 41.0301 97.7588 41.2927 98.5689 41.2927C99.197 41.2927 99.7137 41.1356 100.123 40.8228C100.53 40.5103 100.735 40.1121 100.735 39.6294C100.735 39.2385 100.605 38.8682 100.343 38.5196C100.081 38.1708 99.3815 37.6583 98.2435 36.983C97.1967 36.3594 96.5045 35.8772 96.1657 35.5384C95.827 35.1985 95.5717 34.8185 95.3985 34.3973C95.2261 33.9762 95.1397 33.5303 95.1397 33.0604C95.1397 32.0552 95.4842 31.2324 96.1722 30.5926C96.8605 29.9534 97.7457 29.6333 98.8285 29.6333C99.1607 29.6333 99.5621 29.6886 100.032 29.7996C100.502 29.904 100.834 29.9568 101.03 29.9568C101.219 29.9568 101.421 29.849 101.636 29.6333L101.979 29.6333Z" fill="#A3D3F2"/>
<path d="M104.91 38.9932C105.322 38.9932 105.672 39.1373 105.964 39.4234C106.254 39.7105 106.4 40.0594 106.4 40.4706C106.4 40.8811 106.254 41.2325 105.964 41.5222C105.672 41.8125 105.322 41.9573 104.91 41.9573C104.499 41.9573 104.149 41.8125 103.862 41.5222C103.574 41.2325 103.431 40.8811 103.431 40.4706C103.431 40.0594 103.574 39.7105 103.862 39.4234C104.149 39.1373 104.499 38.9932 104.91 38.9932Z" fill="#A3D3F2"/>
<path d="M115.167 29.936V30.2791C114.539 30.4346 114.135 30.6149 113.952 30.8164C113.769 31.0187 113.677 31.3585 113.677 31.834V39.7272C113.677 40.216 113.806 40.5482 114.065 40.7243C114.322 40.9011 114.811 40.9892 115.529 40.9892C116.281 40.9892 116.863 40.8239 117.279 40.4947C117.692 40.1666 118.126 39.538 118.577 38.6126H118.92L118.577 41.6538H109.621V41.3117C110.243 41.1553 110.644 40.9694 110.822 40.7539C111.001 40.5392 111.09 40.0923 111.09 39.4138V31.9219C111.09 31.393 110.995 31.0237 110.803 30.8115C110.611 30.6 110.217 30.4222 109.621 30.2791V29.936L115.167 29.936Z" fill="#A3D3F2"/>
<path d="M124.329 40.3531V37.487C123.329 37.9107 122.667 38.2768 122.344 38.5828C122.021 38.8896 121.859 39.2838 121.859 39.7657C121.859 40.177 121.956 40.5077 122.148 40.7587C122.341 41.0103 122.595 41.1355 122.908 41.1355C123.332 41.1355 123.806 40.8745 124.329 40.3531ZM121.762 41.9563C121.134 41.9563 120.6 41.7629 120.159 41.3747C119.718 40.9874 119.498 40.5192 119.498 39.9714C119.498 39.4234 119.717 38.9684 120.154 38.6066C120.592 38.2446 121.507 37.8817 122.898 37.5167C123.571 37.3406 124.054 37.1966 124.348 37.0855C124.348 36.3886 124.198 35.8829 123.898 35.5701C123.597 35.2578 123.12 35.1006 122.467 35.1006C121.441 35.1006 120.683 35.5207 120.193 36.3617H119.899C120.102 35.5471 120.499 34.9171 121.09 34.4696C121.681 34.0237 122.414 33.7998 123.29 33.7998C124.302 33.7998 125.111 34.0474 125.715 34.5435C126.319 35.0387 126.622 35.7332 126.622 36.6265V40.1869C126.622 40.8582 126.775 41.1938 127.082 41.1938C127.402 41.1938 127.601 40.9594 127.68 40.4895H128.003C127.964 40.9594 127.785 41.3214 127.464 41.5755C127.144 41.8297 126.71 41.9563 126.161 41.9563C125.697 41.9563 125.324 41.8742 125.039 41.707C124.755 41.541 124.517 41.2687 124.329 40.8902L124.152 41.0564C123.472 41.6569 122.676 41.9563 121.762 41.9563Z" fill="#A3D3F2"/>
<path d="M129.13 41.9567V39.0421H129.473C130.229 40.6273 131.142 41.4197 132.215 41.4197C132.581 41.4197 132.897 41.3119 133.162 41.0956C133.427 40.8799 133.559 40.6225 133.559 40.3223C133.559 39.9957 133.438 39.7135 133.197 39.4749C132.955 39.2363 132.433 38.9607 131.629 38.6482C130.603 38.2492 129.927 37.8617 129.601 37.4865C129.274 37.1116 129.111 36.6533 129.111 36.1111C129.111 35.4587 129.357 34.91 129.851 34.4667C130.343 34.0215 130.979 33.8003 131.757 33.8003C132.044 33.8003 132.544 33.8556 133.255 33.9658C133.536 34.0052 133.706 34.025 133.766 34.025C133.883 34.025 134.036 33.95 134.226 33.8003H134.569V36.1671H134.226C133.997 35.5937 133.677 35.1453 133.265 34.8221C132.854 34.4996 132.396 34.3375 131.894 34.3375C131.534 34.3375 131.234 34.4182 130.992 34.5777C130.75 34.7382 130.629 34.9389 130.629 35.1807C130.629 35.4218 130.731 35.6331 130.934 35.8118C131.135 35.9917 131.59 36.2156 132.295 36.4831C133.386 36.9009 134.115 37.3237 134.481 37.7547C134.847 38.1842 135.029 38.7157 135.029 39.3473C135.029 40.077 134.749 40.695 134.191 41.2001C133.633 41.7042 133.001 41.9567 132.295 41.9567C131.877 41.9567 131.463 41.9147 131.051 41.8301C130.633 41.738 130.339 41.6935 130.169 41.6935C129.869 41.6935 129.636 41.7807 129.473 41.9567L129.13 41.9567Z" fill="#A3D3F2"/>
<path d="M139.331 29.1152H139.673V35.6289H139.712C140.104 34.9839 140.522 34.5169 140.966 34.2305C141.411 33.9434 141.933 33.8002 142.535 33.8002C143.358 33.8002 144.009 34.0593 144.49 34.5777C144.97 35.0968 145.21 35.7985 145.21 36.6853V39.9527C145.21 40.3757 145.3 40.6859 145.479 40.8815C145.659 41.0774 145.964 41.2205 146.395 41.3117V41.6541H141.761V41.3117C142.212 41.1949 142.52 41.0328 142.687 40.8271C142.853 40.6224 142.936 40.3107 142.936 39.8944V36.8425C142.936 35.6289 142.482 35.0226 141.575 35.0226C141.241 35.0226 140.933 35.1124 140.649 35.2917C140.364 35.4718 140.039 35.7952 139.673 36.2648V39.9914C139.673 40.3888 139.761 40.6833 139.936 40.8717C140.111 41.0609 140.418 41.2073 140.859 41.3117V41.6541H136.254V41.3117C136.685 41.2073 136.984 41.051 137.15 40.8421C137.317 40.6338 137.401 40.3172 137.401 39.8944V30.9152C137.401 30.5566 137.317 30.2875 137.15 30.1075C136.984 29.9282 136.685 29.7834 136.254 29.6731V29.3309L139.331 29.1152Z" fill="#A3D3F2"/>
<path d="M147.552 41.6538V41.3117C147.983 41.1939 148.282 41.0443 148.448 40.8616C148.615 40.6791 148.698 40.3959 148.698 40.011V30.856C148.698 30.5169 148.618 30.2636 148.458 30.0974C148.298 29.9313 147.996 29.7899 147.552 29.673V29.3306L150.628 29.1152H150.972V37.5844L153.656 35.6471C153.858 35.4981 153.96 35.3048 153.96 35.0704C153.96 34.882 153.887 34.7306 153.739 34.6161C153.593 34.5026 153.392 34.4452 153.137 34.4452V34.1029H157.311V34.4452C156.808 34.5166 156.402 34.6178 156.092 34.7479C155.781 34.8794 155.392 35.1098 154.922 35.4414L152.938 36.8356L156.509 40.5681C156.756 40.842 156.972 41.0263 157.155 41.1207C157.338 41.2154 157.589 41.2788 157.909 41.3117V41.6538H154.452L150.972 38.0442V39.7659C150.972 40.2882 151.034 40.6355 151.157 40.8083C151.282 40.981 151.599 41.1487 152.108 41.3117V41.6538L147.552 41.6538Z" fill="#A3D3F2"/>
<path d="M163.446 40.3531V37.487C162.446 37.9107 161.785 38.2768 161.461 38.5828C161.138 38.8896 160.977 39.2838 160.977 39.7657C160.977 40.177 161.073 40.5077 161.265 40.7587C161.458 41.0103 161.712 41.1355 162.025 41.1355C162.449 41.1355 162.923 40.8745 163.446 40.3531ZM160.879 41.9563C160.252 41.9563 159.717 41.7629 159.276 41.3747C158.836 40.9874 158.615 40.5192 158.615 39.9714C158.615 39.4234 158.834 38.9684 159.271 38.6066C159.709 38.2446 160.624 37.8817 162.015 37.5167C162.688 37.3406 163.171 37.1966 163.466 37.0855C163.466 36.3886 163.315 35.8829 163.015 35.5701C162.714 35.2578 162.238 35.1006 161.584 35.1006C160.559 35.1006 159.801 35.5207 159.31 36.3617H159.017C159.22 35.5471 159.616 34.9171 160.207 34.4696C160.799 34.0237 161.531 33.7998 162.407 33.7998C163.419 33.7998 164.228 34.0474 164.833 34.5435C165.437 35.0387 165.739 35.7332 165.739 36.6265V40.1869C165.739 40.8582 165.892 41.1938 166.199 41.1938C166.519 41.1938 166.719 40.9594 166.797 40.4895H167.12C167.081 40.9594 166.901 41.3214 166.582 41.5755C166.261 41.8297 165.827 41.9563 165.278 41.9563C164.815 41.9563 164.441 41.8742 164.156 41.707C163.872 41.541 163.635 41.2687 163.446 40.8902L163.269 41.0564C162.59 41.6569 161.793 41.9563 160.879 41.9563Z" fill="#A3D3F2"/>
<path d="M171.461 33.8003V36.2065H171.5C172.218 34.6024 173.055 33.8003 174.009 33.8003C174.532 33.8003 174.979 34.0134 175.351 34.4403L174.852 36.7247C174.166 36.0725 173.597 35.7458 173.146 35.7458C172.814 35.7458 172.523 35.8248 172.275 35.9811C172.027 36.1372 171.755 36.4178 171.461 36.8226V39.9133C171.461 40.3963 171.546 40.7243 171.716 40.9013C171.886 41.0774 172.228 41.2138 172.745 41.3117V41.6541H167.924V41.3117C168.42 41.1942 168.755 41.0413 168.928 40.8519C169.101 40.6628 169.188 40.3501 169.188 39.9133V35.9218C169.188 35.4463 169.078 35.0909 168.859 34.8556C168.641 34.6214 168.29 34.4846 167.806 34.4453V34.103L171.118 33.8003L171.461 33.8003Z" fill="#A3D3F2"/>
<path d="M177.693 30.4157C177.693 30.0571 177.822 29.7501 178.081 29.4969C178.339 29.2418 178.65 29.1152 179.016 29.1152C179.376 29.1152 179.683 29.2402 179.938 29.4911C180.192 29.7427 180.32 30.0505 180.32 30.4157C180.32 30.7809 180.192 31.0919 179.938 31.3503C179.683 31.6068 179.376 31.736 179.016 31.736C178.65 31.736 178.339 31.6052 178.081 31.3452C177.822 31.0837 177.693 30.7743 177.693 30.4157ZM179.8 33.7999H180.143V40.0307C180.143 40.7867 180.552 41.2137 181.368 41.3117V41.6538H176.606V41.3117C177.115 41.2137 177.453 41.0706 177.62 40.8812C177.787 40.6921 177.87 40.3566 177.87 39.8736V35.8443C177.87 35.3812 177.782 35.0587 177.605 34.8761C177.429 34.6935 177.063 34.5494 176.508 34.4449V34.1029L179.8 33.7999Z" fill="#A3D3F2"/>
<path d="M187.042 40.3531V37.487C186.042 37.9107 185.38 38.2768 185.057 38.5828C184.734 38.8896 184.572 39.2838 184.572 39.7657C184.572 40.177 184.669 40.5077 184.861 40.7587C185.054 41.0103 185.308 41.1355 185.621 41.1355C186.045 41.1355 186.519 40.8745 187.042 40.3531ZM184.474 41.9563C183.847 41.9563 183.313 41.7629 182.872 41.3747C182.431 40.9874 182.21 40.5192 182.21 39.9714C182.21 39.4234 182.43 38.9684 182.867 38.6066C183.305 38.2446 184.22 37.8817 185.611 37.5167C186.283 37.3406 186.767 37.1966 187.061 37.0855C187.061 36.3886 186.911 35.8829 186.611 35.5701C186.31 35.2578 185.833 35.1006 185.18 35.1006C184.154 35.1006 183.396 35.5207 182.906 36.3617H182.612C182.815 35.5471 183.212 34.9171 183.803 34.4696C184.394 34.0237 185.127 33.7998 186.002 33.7998C187.015 33.7998 187.824 34.0474 188.428 34.5435C189.032 35.0387 189.334 35.7332 189.334 36.6265V40.1869C189.334 40.8582 189.488 41.1938 189.795 41.1938C190.115 41.1938 190.314 40.9594 190.393 40.4895H190.716C190.677 40.9594 190.497 41.3214 190.177 41.5755C189.857 41.8297 189.423 41.9563 188.874 41.9563C188.41 41.9563 188.036 41.8742 187.752 41.707C187.468 41.541 187.23 41.2687 187.042 40.8902L186.865 41.0564C186.185 41.6569 185.388 41.9563 184.474 41.9563Z" fill="#A3D3F2"/>
<path d="M207.355 29.936V33.2226H206.992C206.646 32.3292 206.109 31.6185 205.38 31.0903C204.652 30.5631 203.847 30.2981 202.965 30.2981C201.775 30.2981 200.856 30.8039 200.207 31.8141C199.557 32.8252 199.232 34.25 199.232 36.0887C199.232 37.7839 199.555 39.0747 200.201 39.9624C200.848 40.8492 201.783 41.2925 203.004 41.2925C204.179 41.2925 204.768 40.8779 204.768 40.0496V38.3089C204.768 37.507 204.366 37.0273 203.562 36.8711V36.5287H208.501V36.8711C208.07 36.9886 207.771 37.1761 207.605 37.4337C207.438 37.6912 207.355 38.0902 207.355 38.6314V41.1158C206.179 41.6759 204.66 41.9565 202.798 41.9565C201.557 41.9565 200.457 41.6999 199.496 41.1848C198.536 40.6699 197.783 39.937 197.238 38.9884C196.692 38.04 196.419 37.0051 196.419 35.8831C196.419 34.0905 197.023 32.5997 198.232 31.4135C199.44 30.2272 200.963 29.6333 202.798 29.6333C203.523 29.6333 204.314 29.7863 205.17 30.0925C205.621 30.2562 205.947 30.3376 206.15 30.3376C206.45 30.3376 206.731 30.2035 206.992 29.936L207.355 29.936Z" fill="#A3D3F2"/>
<path d="M212.959 33.8003V36.2065H212.998C213.717 34.6024 214.553 33.8003 215.507 33.8003C216.03 33.8003 216.478 34.0134 216.849 34.4403L216.35 36.7247C215.665 36.0725 215.096 35.7458 214.645 35.7458C214.312 35.7458 214.021 35.8248 213.773 35.9811C213.525 36.1372 213.254 36.4178 212.959 36.8226V39.9133C212.959 40.3963 213.044 40.7243 213.214 40.9013C213.384 41.0774 213.727 41.2138 214.244 41.3117V41.6541H209.422V41.3117C209.918 41.1942 210.253 41.0413 210.427 40.8519C210.599 40.6628 210.687 40.3501 210.687 39.9133V35.9218C210.687 35.4463 210.577 35.0909 210.358 34.8556C210.139 34.6214 209.788 34.4846 209.304 34.4453V34.103L212.617 33.8003L212.959 33.8003Z" fill="#A3D3F2"/>
<path d="M224.748 37.8732C224.748 36.7511 224.557 35.8808 224.175 35.2628C223.793 34.6458 223.249 34.3373 222.543 34.3373C221.818 34.3373 221.266 34.6542 220.887 35.2876C220.508 35.921 220.319 36.8285 220.319 38.0106C220.319 39.0487 220.52 39.877 220.921 40.494C221.324 41.111 221.863 41.4195 222.543 41.4195C223.236 41.4195 223.776 41.1078 224.165 40.4842C224.554 39.8597 224.748 38.9895 224.748 37.8732ZM227.257 37.8683C227.257 39.0288 226.824 40.0005 225.958 40.7829C225.092 41.565 223.954 41.9567 222.543 41.9567C221.132 41.9567 219.991 41.5675 219.118 40.7885C218.246 40.0094 217.81 39.0356 217.81 37.8683C217.81 37.1443 218.011 36.4566 218.413 35.8041C218.815 35.1526 219.367 34.6558 220.069 34.3135C220.771 33.9715 221.596 33.8003 222.543 33.8003C223.961 33.8003 225.101 34.1909 225.964 34.9732C226.826 35.7556 227.257 36.7214 227.257 37.8683Z" fill="#A3D3F2"/>
<path d="M235.204 40.1083H235.164C234.354 41.3406 233.352 41.9568 232.156 41.9568C231.372 41.9568 230.758 41.7536 230.314 41.3456C229.87 40.9384 229.647 40.3723 229.647 39.6484V35.7458C229.647 35.3289 229.562 35.0268 229.392 34.8417C229.223 34.6559 228.913 34.5234 228.462 34.4453V34.103L231.578 33.8003H231.911V39.3744C231.911 39.7923 232.035 40.1173 232.283 40.3485C232.532 40.5795 232.878 40.6956 233.322 40.6956C233.708 40.6956 234.036 40.5961 234.307 40.3979C234.578 40.198 234.877 39.8417 235.204 39.3259V35.5608C235.204 34.9536 234.808 34.5826 234.018 34.4453V34.103L237.134 33.8003H237.477V39.8154C237.477 40.3172 237.552 40.6611 237.703 40.847C237.852 41.0329 238.179 41.1877 238.682 41.3117V41.6541L235.204 41.9567V40.1083Z" fill="#A3D3F2"/>
<path d="M243.377 35.8047V40.3135C243.964 40.9008 244.585 41.1946 245.238 41.1946C245.911 41.1946 246.455 40.9042 246.869 40.3235C247.285 39.7436 247.492 38.9768 247.492 38.0249C247.492 37.0336 247.294 36.2496 246.899 35.673C246.503 35.0963 245.969 34.8076 245.297 34.8076C244.565 34.8076 243.925 35.1392 243.377 35.8047ZM243.377 33.7998V35.2675C244.225 34.2886 245.242 33.7998 246.423 33.7998C247.45 33.7998 248.302 34.1792 248.982 34.9392C249.661 35.6993 250 36.6496 250 37.7906C250 39.0039 249.626 40.001 248.879 40.7834C248.13 41.5656 247.178 41.9572 246.022 41.9572C245.532 41.9572 245.106 41.8807 244.743 41.7268C244.38 41.5745 243.925 41.2816 243.377 40.8523V45.6253C243.377 46.1593 243.468 46.5293 243.651 46.735C243.834 46.9407 244.209 47.1011 244.778 47.2196V47.5421H239.741V47.1997C240.289 47.134 240.654 46.981 240.834 46.7399C241.013 46.499 241.103 46.0193 241.103 45.302V36.0687C241.103 35.4888 241.013 35.1012 240.834 34.9046C240.654 34.7097 240.289 34.5558 239.741 34.4458V34.1033L243.033 33.7998L243.377 33.7998Z" fill="#A3D3F2"/>
<path d="M98.5624 46.7524V48.3122H98.3893C98.2739 47.9675 98.076 47.6763 97.7949 47.441C97.5133 47.2064 97.2231 47.088 96.9241 47.088C96.6535 47.088 96.4246 47.1654 96.2348 47.32C96.0463 47.4756 95.9514 47.6639 95.9514 47.8885C95.9514 47.9972 95.9763 48.1049 96.0255 48.211C96.075 48.3178 96.1468 48.4174 96.2407 48.5104C96.3346 48.6019 96.6371 48.8075 97.149 49.1258C97.6706 49.4432 98.0068 49.6654 98.1585 49.7904C98.3094 49.9154 98.4545 50.0752 98.5928 50.2691C98.803 50.5695 98.9084 50.8969 98.9084 51.2532C98.9084 51.7795 98.7232 52.1983 98.3522 52.5076C97.9814 52.8177 97.5322 52.9725 97.0046 52.9725C96.7212 52.9725 96.3833 52.9214 95.991 52.8193C95.7833 52.7675 95.6382 52.7405 95.5557 52.7405C95.4174 52.7405 95.3167 52.8046 95.2541 52.9328H95.0811V51.1511H95.2541C95.3432 51.6118 95.5279 51.9744 95.8081 52.2394C96.0881 52.5042 96.4327 52.6367 96.8416 52.6367C97.1579 52.6367 97.4193 52.5579 97.6253 52.3998C97.8314 52.2419 97.9345 52.0411 97.9345 51.7977C97.9345 51.6002 97.8683 51.4136 97.7366 51.2376C97.6048 51.0615 97.252 50.8031 96.6767 50.4618C96.1491 50.1467 95.7989 49.904 95.6284 49.7328C95.4579 49.561 95.3285 49.3693 95.241 49.157C95.1544 48.9439 95.1106 48.7203 95.1106 48.4824C95.1106 47.9748 95.2838 47.5595 95.6317 47.237C95.9786 46.9137 96.4262 46.7524 96.9726 46.7524C97.1399 46.7524 97.3427 46.7804 97.5801 46.837C97.8165 46.8891 97.9847 46.9155 98.0835 46.9155C98.179 46.9155 98.2805 46.8611 98.3893 46.7524L98.5624 46.7524Z" fill="#A3D3F2"/>
<path d="M101.179 46.4907H101.352V49.778C101.55 49.4523 101.78 49.2169 102.005 49.0724C102.229 48.9276 102.492 48.8551 102.796 48.8551C103.211 48.8551 103.54 48.9859 103.782 49.2475C104.025 49.5091 104.146 49.8636 104.146 50.312V51.9597C104.146 52.1736 104.191 52.3307 104.282 52.4294C104.372 52.5274 104.527 52.6005 104.744 52.6458V52.8186H102.405V52.6458C102.633 52.5865 102.788 52.5061 102.872 52.4024C102.956 52.2988 102.998 52.1406 102.998 51.9301V50.3901C102.998 49.778 102.769 49.4721 102.311 49.4721C102.143 49.4721 101.987 49.5173 101.844 49.6078C101.701 49.6983 101.536 49.8619 101.352 50.0989V51.9795C101.352 52.1804 101.396 52.3291 101.485 52.4238C101.573 52.5192 101.728 52.5931 101.95 52.6458V52.8186H99.626V52.6458C99.8437 52.5931 99.9944 52.5143 100.078 52.4088C100.163 52.3037 100.205 52.144 100.205 51.9301V47.399C100.205 47.218 100.163 47.0824 100.078 46.9909C99.9944 46.9014 99.8437 46.8282 99.626 46.7723V46.5994L101.179 46.4907Z" fill="#A3D3F2"/>
<path d="M107.647 52.163V50.7158C107.143 50.9306 106.809 51.1148 106.646 51.2697C106.483 51.4243 106.401 51.6231 106.401 51.8668C106.401 52.0741 106.45 52.2411 106.547 52.3678C106.644 52.4944 106.772 52.5569 106.93 52.5569C107.144 52.5569 107.383 52.4263 107.647 52.163ZM106.352 52.9714C106.035 52.9714 105.766 52.8744 105.543 52.6788C105.321 52.4829 105.209 52.247 105.209 51.9704C105.209 51.694 105.32 51.4636 105.541 51.2818C105.761 51.0992 106.223 50.915 106.925 50.7315C107.265 50.6419 107.509 50.5694 107.657 50.5134C107.657 50.1615 107.581 49.9074 107.43 49.7485C107.278 49.5905 107.037 49.5116 106.708 49.5116C106.19 49.5116 105.808 49.7239 105.561 50.1492H105.412C105.514 49.7378 105.715 49.4186 106.013 49.1941C106.311 48.9678 106.681 48.855 107.123 48.855C107.634 48.855 108.042 48.9808 108.347 49.2311C108.652 49.4804 108.804 49.8307 108.804 50.2823V52.0781C108.804 52.4179 108.882 52.5874 109.037 52.5874C109.198 52.5874 109.299 52.4689 109.338 52.232H109.501C109.482 52.4689 109.391 52.6515 109.23 52.78C109.068 52.9082 108.849 52.9714 108.572 52.9714C108.338 52.9714 108.149 52.9304 108.006 52.8464C107.862 52.7625 107.743 52.6252 107.647 52.4345L107.558 52.5184C107.215 52.8211 106.813 52.9714 106.352 52.9714Z" fill="#A3D3F2"/>
<path d="M111.589 49.8678V52.1431C111.886 52.4393 112.199 52.5874 112.529 52.5874C112.868 52.5874 113.143 52.441 113.352 52.1474C113.561 51.8552 113.666 51.4679 113.666 50.9873C113.666 50.488 113.566 50.0915 113.367 49.8011C113.167 49.5091 112.898 49.3642 112.558 49.3642C112.189 49.3642 111.866 49.5322 111.589 49.8678ZM111.589 48.856V49.5963C112.018 49.102 112.53 48.856 113.127 48.856C113.644 48.856 114.075 49.0476 114.418 49.4309C114.76 49.8143 114.932 50.294 114.932 50.8697C114.932 51.4819 114.743 51.9853 114.366 52.3801C113.988 52.7749 113.508 52.9714 112.924 52.9714C112.677 52.9714 112.462 52.9337 112.279 52.8565C112.096 52.7791 111.866 52.632 111.589 52.4147V54.8234C111.589 55.094 111.635 55.2798 111.728 55.3835C111.82 55.4871 112.009 55.5694 112.296 55.628V55.7907H109.754V55.6179C110.031 55.585 110.215 55.5079 110.306 55.3861C110.397 55.2651 110.442 55.0233 110.442 54.6604V50.0002C110.442 49.7083 110.397 49.5116 110.306 49.4127C110.215 49.3141 110.031 49.2367 109.754 49.1807V49.0082L111.416 48.856L111.589 48.856Z" fill="#A3D3F2"/>
<path d="M116.173 47.1476C116.173 46.9667 116.238 46.8121 116.368 46.6837C116.498 46.5545 116.656 46.4912 116.841 46.4912C117.022 46.4912 117.177 46.5545 117.306 46.6813C117.434 46.8079 117.498 46.9625 117.498 47.1476C117.498 47.3319 117.434 47.4891 117.306 47.6189C117.177 47.7491 117.022 47.8139 116.841 47.8139C116.656 47.8139 116.498 47.7475 116.368 47.6166C116.238 47.4849 116.173 47.3287 116.173 47.1476ZM117.237 48.8556H117.409V51.9997C117.409 52.3813 117.615 52.5968 118.027 52.6469V52.8198H115.624V52.6469C115.881 52.5968 116.052 52.5243 116.136 52.4299C116.22 52.3345 116.262 52.165 116.262 51.9215V49.8869C116.262 49.6533 116.217 49.4914 116.128 49.3984C116.039 49.3063 115.855 49.2338 115.575 49.1813V49.0085L117.237 48.8556Z" fill="#A3D3F2"/>
<path d="M120.307 48.8555V49.7885C120.673 49.1665 121.176 48.8555 121.776 48.8555C122.152 48.8555 122.469 48.9813 122.726 49.2329C122.983 49.4848 123.111 49.8213 123.111 50.2434V51.9107C123.111 52.1511 123.155 52.3197 123.241 52.4167C123.326 52.5137 123.483 52.5902 123.709 52.6462V52.819H121.361V52.6462C121.585 52.597 121.741 52.5221 121.83 52.4216C121.92 52.3213 121.964 52.1674 121.964 51.9601V50.3807C121.964 50.0944 121.903 49.8715 121.778 49.712C121.655 49.5522 121.481 49.4725 121.257 49.4725C120.864 49.4725 120.548 49.6947 120.307 50.1389V51.9214C120.307 52.1476 120.347 52.309 120.426 52.4044C120.505 52.5007 120.653 52.5804 120.871 52.6462V52.819H118.562V52.6462C118.786 52.5902 118.942 52.5147 119.029 52.4192C119.116 52.3246 119.16 52.1808 119.16 51.9907V49.8575C119.16 49.6403 119.11 49.4823 119.009 49.3836C118.909 49.284 118.73 49.2173 118.473 49.1812V49.0084L120.134 48.8555H120.307Z" fill="#A3D3F2"/>
<path d="M125.49 50.3836C125.49 50.7562 125.569 51.053 125.728 51.276C125.886 51.4981 126.097 51.6101 126.36 51.6101C126.634 51.6101 126.847 51.5005 126.997 51.2834C127.146 51.0654 127.222 50.7552 127.222 50.3539C127.222 49.9746 127.147 49.6777 126.999 49.4638C126.85 49.2491 126.651 49.1413 126.4 49.1413C125.793 49.1413 125.49 49.555 125.49 50.3836ZM125.016 54.2852C125.016 54.5749 125.236 54.8076 125.678 54.9837C126.12 55.1607 126.631 55.2477 127.211 55.2477C127.495 55.2477 127.728 55.1884 127.912 55.0699C128.095 54.9515 128.186 54.8018 128.186 54.6208C128.186 54.3347 127.978 54.1092 127.563 53.9445C127.147 53.7802 126.649 53.6979 126.069 53.6979C125.749 53.6979 125.493 53.7512 125.302 53.8583C125.111 53.9653 125.016 54.1076 125.016 54.2852ZM124.348 50.4255C124.348 49.9745 124.53 49.6002 124.894 49.3025C125.259 49.004 125.721 48.856 126.281 48.856C126.384 48.856 126.53 48.8599 126.721 48.8699L126.85 48.8748H128.844V49.5667L127.87 49.4926L127.849 49.5114C128.196 49.8019 128.369 50.1261 128.369 50.4847C128.369 50.8821 128.197 51.2151 127.852 51.4817C127.507 51.7481 127.064 51.8815 126.524 51.8815C126.079 51.8815 125.763 51.9118 125.577 51.9753C125.39 52.0378 125.297 52.1399 125.297 52.2805C125.297 52.3857 125.365 52.4673 125.5 52.5265C125.635 52.5864 125.94 52.6383 126.416 52.6844C127.104 52.7535 127.601 52.8488 127.904 52.9714C128.207 53.0925 128.438 53.2611 128.596 53.4775C128.754 53.6921 128.834 53.9175 128.834 54.1512C128.834 54.6514 128.6 55.065 128.134 55.3933C127.668 55.7208 127.05 55.8845 126.281 55.8845C125.635 55.8845 125.107 55.7751 124.697 55.5538C124.286 55.3342 124.081 55.0488 124.081 54.6999C124.081 54.4168 124.229 54.171 124.526 53.9595C124.823 53.749 125.218 53.6188 125.713 53.5696V53.5449C125.251 53.4987 124.913 53.4059 124.699 53.266C124.485 53.1261 124.377 52.9165 124.377 52.6366C124.377 52.426 124.467 52.2584 124.647 52.1331C124.827 52.0081 125.152 51.893 125.624 51.7878C125.182 51.6528 124.859 51.4578 124.655 51.2423C124.45 51.0266 124.348 50.7545 124.348 50.4255Z" fill="#A3D3F2"/>
<path d="M139.417 46.9053V47.0781C139.176 47.1044 138.968 47.2236 138.791 47.4358C138.615 47.6482 138.453 47.9764 138.304 48.4206L136.75 52.9715H136.57L134.828 48.3122L133.263 52.9715H133.087L131.242 48.0258C131.097 47.6408 130.969 47.3915 130.856 47.2779C130.744 47.1637 130.56 47.097 130.302 47.0781V46.9053H132.859V47.0781C132.599 47.1276 132.468 47.2666 132.468 47.4969C132.467 47.6021 132.495 47.7355 132.55 47.8966L133.621 50.7454L134.633 47.7476C134.527 47.5067 134.422 47.3446 134.317 47.2616C134.212 47.1783 134.038 47.1176 133.794 47.0781V46.9053H136.316V47.0781C136.066 47.1471 135.941 47.287 135.941 47.4976C135.941 47.5757 135.959 47.6622 135.995 47.7544L137.117 50.7454L137.94 48.3128C138.043 48.0036 138.093 47.77 138.092 47.6111C138.092 47.3215 137.918 47.1438 137.572 47.0781V46.9053L139.417 46.9053Z" fill="#A3D3F2"/>
<path d="M141.39 46.4907H141.563V49.778C141.761 49.4523 141.992 49.2169 142.216 49.0724C142.44 48.9276 142.704 48.8551 143.007 48.8551C143.423 48.8551 143.751 48.9859 143.994 49.2475C144.236 49.5091 144.357 49.8636 144.357 50.312V51.9597C144.357 52.1736 144.403 52.3307 144.493 52.4294C144.584 52.5274 144.738 52.6005 144.956 52.6458V52.8186H142.617V52.6458C142.844 52.5865 143 52.5061 143.084 52.4024C143.168 52.2988 143.21 52.1406 143.21 51.9301V50.3901C143.21 49.778 142.981 49.4721 142.523 49.4721C142.354 49.4721 142.199 49.5173 142.055 49.6078C141.912 49.6983 141.748 49.8619 141.563 50.0989V51.9795C141.563 52.1804 141.607 52.3291 141.696 52.4238C141.784 52.5192 141.939 52.5931 142.162 52.6458V52.8186H139.837V52.6458C140.055 52.5931 140.206 52.5143 140.29 52.4088C140.374 52.3037 140.416 52.144 140.416 51.9301V47.399C140.416 47.218 140.374 47.0824 140.29 46.9909C140.206 46.9014 140.055 46.8282 139.837 46.7723V46.5994L141.39 46.4907Z" fill="#A3D3F2"/>
<path d="M147.859 52.163V50.7158C147.354 50.9306 147.021 51.1148 146.857 51.2697C146.694 51.4243 146.613 51.6231 146.613 51.8668C146.613 52.0741 146.661 52.2411 146.758 52.3678C146.856 52.4944 146.983 52.5569 147.142 52.5569C147.356 52.5569 147.595 52.4263 147.859 52.163ZM146.563 52.9714C146.247 52.9714 145.977 52.8744 145.754 52.6788C145.532 52.4829 145.421 52.247 145.421 51.9704C145.421 51.694 145.531 51.4636 145.752 51.2818C145.973 51.0992 146.435 50.915 147.137 50.7315C147.476 50.6419 147.72 50.5694 147.869 50.5134C147.869 50.1615 147.793 49.9074 147.641 49.7485C147.489 49.5905 147.249 49.5116 146.919 49.5116C146.402 49.5116 146.019 49.7239 145.772 50.1492H145.623C145.726 49.7378 145.926 49.4186 146.224 49.1941C146.523 48.9678 146.893 48.855 147.334 48.855C147.845 48.855 148.254 48.9808 148.558 49.2311C148.863 49.4804 149.016 49.8307 149.016 50.2823V52.0781C149.016 52.4179 149.093 52.5874 149.248 52.5874C149.41 52.5874 149.51 52.4689 149.55 52.232H149.713C149.693 52.4689 149.602 52.6515 149.441 52.78C149.28 52.9082 149.06 52.9714 148.783 52.9714C148.549 52.9714 148.361 52.9304 148.217 52.8464C148.074 52.7625 147.954 52.6252 147.859 52.4345L147.77 52.5184C147.427 52.8211 147.025 52.9714 146.563 52.9714Z" fill="#A3D3F2"/>
<path d="M153.072 52.1823L153.19 52.2965C152.923 52.7472 152.514 52.9718 151.964 52.9718C151.555 52.9718 151.237 52.8666 151.009 52.6561C150.782 52.4453 150.668 52.1459 150.668 51.7576V49.3096H149.981V49.117C150.492 48.8045 151.039 48.2763 151.623 47.5327H151.816V49.0083H153.072V49.3096H151.816V51.5067C151.816 51.8523 151.871 52.1006 151.981 52.2536C152.092 52.4068 152.269 52.4833 152.513 52.4833C152.714 52.4833 152.9 52.3828 153.072 52.1823Z" fill="#A3D3F2"/>
<path d="M153.961 49.5763V49.4036C154.604 49.1765 154.926 48.7947 154.926 48.2577C154.926 48.1695 154.908 48.084 154.871 48.0016C154.835 47.9195 154.792 47.8783 154.743 47.8783C154.734 47.8783 154.711 47.8809 154.678 47.8883C154.632 47.8948 154.597 47.8981 154.57 47.8981C154.408 47.8981 154.27 47.8298 154.154 47.6931C154.039 47.5566 153.981 47.3946 153.981 47.2071C153.981 46.9957 154.051 46.8238 154.191 46.6904C154.331 46.5579 154.512 46.4912 154.734 46.4912C155.01 46.4912 155.245 46.6149 155.44 46.8639C155.635 47.1125 155.732 47.4128 155.732 47.7647C155.732 48.1992 155.551 48.6006 155.188 48.9717C154.825 49.3418 154.417 49.5433 153.961 49.5763Z" fill="#A3D3F2"/>
<path d="M155.49 52.9719V51.501H155.663C156.044 52.3015 156.505 52.7012 157.047 52.7012C157.231 52.7012 157.391 52.6462 157.525 52.5374C157.658 52.429 157.725 52.2989 157.725 52.1469C157.725 51.9823 157.664 51.8401 157.542 51.7199C157.42 51.5989 157.156 51.4599 156.751 51.3019C156.233 51.1013 155.892 50.9054 155.727 50.7163C155.562 50.5269 155.48 50.2949 155.48 50.0219C155.48 49.6928 155.604 49.4156 155.853 49.191C156.102 48.9673 156.423 48.8555 156.815 48.8555C156.96 48.8555 157.212 48.8834 157.572 48.9394C157.713 48.9589 157.799 48.969 157.829 48.969C157.888 48.969 157.966 48.931 158.061 48.8555H158.234V50.0498H158.061C157.946 49.7602 157.784 49.534 157.577 49.3713C157.369 49.2083 157.138 49.1269 156.884 49.1269C156.703 49.1269 156.551 49.1672 156.429 49.2486C156.307 49.3283 156.246 49.4296 156.246 49.5522C156.246 49.6739 156.298 49.78 156.4 49.8705C156.502 49.962 156.731 50.0746 157.087 50.2096C157.638 50.4201 158.005 50.634 158.19 50.851C158.375 51.0684 158.467 51.3365 158.467 51.6548C158.467 52.0233 158.326 52.3351 158.044 52.5902C157.762 52.8453 157.443 52.9719 157.087 52.9719C156.876 52.9719 156.667 52.9514 156.459 52.9085C156.248 52.8617 156.1 52.8395 156.014 52.8395C155.862 52.8395 155.745 52.8838 155.663 52.9719L155.49 52.9719Z" fill="#A3D3F2"/>
<path d="M165.697 47.0786V46.9058H167.695V47.0786C167.122 47.1115 166.835 47.4339 166.835 48.0461V52.888H166.641L162.379 48.0946V51.71C162.379 52.025 162.436 52.2463 162.552 52.3732C162.668 52.4998 162.9 52.5903 163.25 52.6469V52.8197H161.207V52.6469C161.484 52.6042 161.682 52.5096 161.802 52.3632C161.923 52.216 161.984 51.9888 161.984 51.6797V47.666C161.752 47.4291 161.594 47.2777 161.507 47.2117C161.419 47.146 161.316 47.1017 161.198 47.0786V46.9058H162.977L166.439 50.8693V48.2088C166.439 47.8164 166.387 47.5466 166.284 47.3969C166.181 47.2471 165.986 47.1411 165.697 47.0786Z" fill="#A3D3F2"/>
<path d="M169.436 50.3407H171.103C171.08 49.982 170.989 49.69 170.83 49.4655C170.672 49.2393 170.477 49.1264 170.245 49.1264C170.013 49.1264 169.825 49.2367 169.68 49.4581C169.534 49.6777 169.453 49.9729 169.436 50.3407ZM172.161 51.6446H172.334C172.163 52.056 171.894 52.3801 171.528 52.617C171.162 52.8539 170.75 52.9715 170.292 52.9715C169.695 52.9715 169.198 52.7791 168.801 52.3916C168.404 52.005 168.205 51.5213 168.205 50.9388C168.205 50.3465 168.409 49.8505 168.816 49.4522C169.223 49.0549 169.728 48.855 170.331 48.855C170.876 48.855 171.328 49.0106 171.689 49.3223C172.05 49.6332 172.265 50.0496 172.334 50.5726H169.441C169.438 50.6261 169.436 50.6781 169.436 50.7315C169.436 51.248 169.567 51.6668 169.826 51.9902C170.087 52.3118 170.409 52.4739 170.794 52.4739C171.343 52.4739 171.799 52.1975 172.161 51.6446Z" fill="#A3D3F2"/>
<path d="M176.603 49.9357L175.897 50.667L177.098 52.1427C177.248 52.327 177.384 52.4546 177.502 52.5245C177.621 52.5961 177.772 52.6364 177.957 52.6463V52.8191H175.331V52.6463C175.588 52.6332 175.717 52.5417 175.717 52.3739C175.719 52.2834 175.676 52.1848 175.591 52.077L174.964 51.283L174.398 51.8268C174.239 51.9749 174.159 52.1263 174.159 52.2811C174.159 52.4718 174.275 52.5928 174.506 52.6463V52.8191H172.66V52.6463C172.892 52.6264 173.102 52.5583 173.293 52.4438C173.484 52.3286 173.727 52.1229 174.02 51.8278L174.767 51.0626L173.936 50.0401C173.68 49.7202 173.469 49.5006 173.304 49.3778C173.138 49.257 172.956 49.1911 172.755 49.1804V49.0078H175.321V49.1804C175.13 49.1804 175.035 49.2727 175.035 49.4576C175.034 49.5565 175.067 49.6454 175.133 49.7242L175.711 50.4375L176.197 49.9373C176.339 49.795 176.409 49.6525 176.409 49.5112C176.409 49.3498 176.312 49.2396 176.118 49.1804V49.0078H177.809V49.1804C177.581 49.2274 177.38 49.3047 177.205 49.4149C177.031 49.5259 176.83 49.6997 176.603 49.9357Z" fill="#A3D3F2"/>
<path d="M181.454 52.1823L181.572 52.2965C181.305 52.7472 180.897 52.9718 180.346 52.9718C179.937 52.9718 179.618 52.8666 179.392 52.6561C179.164 52.4453 179.05 52.1459 179.05 51.7576V49.3096H178.363V49.117C178.874 48.8045 179.421 48.2763 180.005 47.5327H180.198V49.0083H181.454V49.3096H180.198V51.5067C180.198 51.8523 180.252 52.1006 180.363 52.2536C180.474 52.4068 180.651 52.4833 180.895 52.4833C181.096 52.4833 181.282 52.3828 181.454 52.1823Z" fill="#A3D3F2"/>
<path d="M42.5787 3.2497C20.895 3.2497 3.25473 20.8573 3.25473 42.5C3.25473 64.1421 20.8951 81.7515 42.5787 81.7515C64.2614 81.7515 81.9025 64.1421 81.9025 42.5C81.9025 20.8573 64.2614 3.2497 42.5787 3.2497ZM42.5787 85.0002C19.1009 85.0002 0 65.9356 0 42.5C0 19.0657 19.1008 0 42.5787 0C66.0573 0 85.1579 19.0656 85.1579 42.5C85.1579 65.9355 66.0572 85.0002 42.5787 85.0002Z" fill="#A3D3F2"/>
<path d="M42.4221 23.0464C41.8698 22.9764 41.3028 22.9312 40.712 22.9312C38.6077 22.9312 36.826 23.3582 35.3855 24.189V37.0412C36.9299 38.4422 39.296 40.1121 42.4221 42.0206L42.4221 23.0464Z" fill="#A3D3F2"/>
<path d="M48.4215 59.7396C46.076 59.7396 44.4895 59.38 43.6627 58.6594C42.8352 57.9396 42.4224 56.6036 42.4224 54.6513V53.7456C41.2051 52.9115 39.8421 52.0297 38.2974 51.0878C37.2344 50.433 36.2651 49.8159 35.3858 49.2334V51.9417C35.3858 55.1277 34.9268 57.3948 34.0093 58.7473C33.0921 60.0989 31.5509 60.7751 29.386 60.7751V62.306H50.0458C49.8389 61.4364 49.4829 60.5793 48.9703 59.7395L48.4215 59.7396Z" fill="#A3D3F2"/>
<path d="M69.3962 50.7793C68.2532 54.502 67.035 56.9252 65.743 58.0515C64.4498 59.1759 62.1793 59.7396 58.9313 59.7396H57.7016C57.7123 59.9823 57.7295 60.2233 57.7295 60.4702C57.7295 61.0954 57.6885 61.7049 57.6233 62.3063H67.7275L70.9755 50.7793L69.3962 50.7793Z" fill="#A3D3F2"/>
<path d="M34.0996 12.7132C34.9569 13.8393 35.3855 15.8301 35.3855 18.6838V20.0536C37.0379 19.5361 38.8396 19.2605 40.8017 19.2605C41.3286 19.2605 41.8724 19.2934 42.4221 19.3395C42.4238 16.3748 42.8812 14.2474 43.7977 12.9592C44.7142 11.6683 46.2258 11.0226 48.3313 11.0226V9.4917H29.3857V11.0226C31.671 11.0226 33.2428 11.5863 34.0996 12.7132Z" fill="#A3D3F2"/>
<path d="M52.53 20.6238H54.0191V33.0052H52.4401C52.0791 29.5838 50.8389 26.9126 48.7183 24.9912C46.5985 23.0711 43.9291 22.1095 40.7124 22.1095C37.855 22.1095 35.5541 22.8309 33.8109 24.2713C32.0662 25.7125 31.1942 27.6334 31.1942 30.0329C31.1942 32.2557 31.9162 34.2819 33.3592 36.1115C34.8032 37.9444 37.93 40.2986 42.7423 43.1813C48.335 46.5128 52.0941 49.4243 54.0191 51.9151C55.9428 54.4078 56.9056 57.2582 56.9056 60.4699C56.9056 64.6126 55.4335 68.154 52.4913 71.0959C49.5491 74.0385 46.006 75.5085 41.8629 75.5085C39.4614 75.5085 36.398 74.8479 32.6752 73.5283C31.1438 72.9871 30.1683 72.7173 29.7477 72.7173C28.8766 72.7173 28.2009 73.3919 27.7213 74.7426H26.142V60.4699H27.7213C27.7509 64.4036 29.0339 67.5551 31.5699 69.9253C34.1059 72.2962 37.0705 73.4824 40.4618 73.4824C43.6728 73.4824 46.2466 72.6259 48.1833 70.914C50.1185 69.2022 51.087 66.9185 51.087 64.0648C51.087 61.9316 50.2908 59.8898 48.7001 57.9368C47.1087 55.9832 43.784 53.4675 38.7262 50.3859C34.6012 47.8432 31.8486 45.8366 30.4666 44.3643C29.0861 42.8934 28.064 41.2795 27.4038 39.5222C26.7429 37.7657 26.4132 35.8351 26.4132 33.7332C26.4132 29.6792 27.7435 26.3903 30.4047 23.8674C33.0667 21.345 36.5313 20.084 40.8022 20.084C43.1477 20.084 45.7035 20.5489 48.4709 21.4791C49.7633 21.9005 50.6649 22.1095 51.1767 22.1095C51.5979 22.1095 51.8829 22.0196 52.0339 21.8397C52.1839 21.6594 52.3495 21.2546 52.53 20.6238Z" fill="#A3D3F2"/>
</g>
<defs>
<clipPath id="clip0_90_25">
<rect width="250" height="85" fill="white"/>
</clipPath>
</defs>
</svg>
